<svg width="7" height="7" viewBox="0 0 7 7" fill="none" xmlns="http://www.w3.org/2000/svg">
<g clip-path="url(#clip0_2963_534)">
<path d="M6.64998 3.15H3.85002V0.349979C3.85002 0.156821 3.6932 0 3.49998 0C3.30682 0 3.15 0.156821 3.15 0.349979V3.15H0.349979C0.156821 3.15 0 3.30682 0 3.49998C0 3.6932 0.156821 3.85002 0.349979 3.85002H3.15V6.64998C3.15 6.8432 3.30682 7.00002 3.49998 7.00002C3.6932 7.00002 3.85002 6.8432 3.85002 6.64998V3.85002H6.64998C6.8432 3.85002 7.00002 3.6932 7.00002 3.49998C7.00002 3.30682 6.8432 3.15 6.64998 3.15Z" fill="#0083FF"/>
</g>
<defs>
<clipPath id="clip0_2963_534">
<rect width="7" height="7" fill="white"/>
</clipPath>
</defs>
</svg>
