<svg width="20" height="20" viewBox="0 0 20 20" fill="none" xmlns="http://www.w3.org/2000/svg">
<path d="M2.29175 1.66667C2.29175 1.32149 2.01193 1.04167 1.66675 1.04167C1.32157 1.04167 1.04175 1.32149 1.04175 1.66667V10.0478C1.04174 11.9715 1.04173 13.479 1.19987 14.6553C1.36174 15.8592 1.69952 16.8092 2.4452 17.5549C3.19087 18.3006 4.14089 18.6384 5.34484 18.8002C6.52108 18.9584 8.02861 18.9584 9.95227 18.9583H18.3334C18.6786 18.9583 18.9584 18.6785 18.9584 18.3333C18.9584 17.9882 18.6786 17.7083 18.3334 17.7083H10.0001C8.01823 17.7083 6.59471 17.707 5.5114 17.5614C4.44606 17.4181 3.80379 17.1457 3.32908 16.671C2.85437 16.1963 2.58195 15.554 2.43872 14.4887C2.29308 13.4054 2.29175 11.9819 2.29175 10V1.66667Z" fill="#2B3344"/>
<path d="M16.323 6.22201C16.5377 5.9517 16.4925 5.55855 16.2222 5.34389C15.9519 5.12923 15.5588 5.17435 15.3441 5.44466L12.7458 8.71666C12.5414 8.97403 12.4073 9.14231 12.2969 9.26355C12.1888 9.38212 12.1381 9.41576 12.1151 9.42809C11.9394 9.52199 11.7295 9.52656 11.55 9.44039C11.5264 9.42907 11.4743 9.39767 11.3612 9.2839C11.2456 9.16758 11.1043 9.00529 10.889 8.75706L10.8755 8.74154C10.6773 8.51308 10.5082 8.31823 10.3591 8.16821C10.2041 8.01225 10.0346 7.86675 9.82459 7.76599C9.28593 7.50749 8.65631 7.52118 8.1294 7.80286C7.92401 7.91265 7.76098 8.06538 7.61288 8.22793C7.47042 8.3843 7.31001 8.5863 7.12191 8.82318L4.51064 12.1113C4.29598 12.3816 4.34109 12.7748 4.6114 12.9894C4.88171 13.2041 5.27485 13.159 5.48952 12.8887L8.08801 9.61663C8.29239 9.35928 8.42645 9.191 8.5369 9.06977C8.64493 8.95119 8.69563 8.91756 8.71871 8.90523C8.89434 8.81133 9.10421 8.80677 9.28377 8.89294C9.30736 8.90426 9.35947 8.93565 9.47255 9.04942C9.58817 9.16574 9.72942 9.32802 9.9448 9.57625L9.95825 9.59176C10.1565 9.82025 10.3255 10.0151 10.4747 10.1651C10.6297 10.3211 10.7992 10.4666 11.0092 10.5673C11.5478 10.8258 12.1775 10.8121 12.7044 10.5305C12.9098 10.4207 13.0728 10.2679 13.2209 10.1054C13.3633 9.949 13.5238 9.747 13.7119 9.51013L16.323 6.22201Z" fill="#2B3344"/>
</svg>
