<svg width="12" height="12" viewBox="0 0 12 12" fill="none" xmlns="http://www.w3.org/2000/svg">
<g clip-path="url(#clip0_2989_204)">
<path d="M9.35489 1.02516C8.39777 0.378311 7.24126 7.95007e-05 5.99997 0.000305277C5.17264 0.000192389 4.38243 0.168198 3.6644 0.47198C2.58717 0.927652 1.67182 1.68795 1.02497 2.6453C0.378062 3.60242 -0.000141071 4.75896 3.94728e-08 6.00025C3.94728e-08 6.10427 0.0421355 6.20596 0.115654 6.27951C0.189172 6.35305 0.290884 6.39516 0.394911 6.39516H5.60509V7.83956C5.60509 7.98697 5.68733 8.12229 5.81817 8.19014C5.949 8.25798 6.10699 8.24723 6.22744 8.16236L8.83713 6.32308C8.94181 6.24928 9.00454 6.12841 9.00454 6.00028C9.00454 5.87223 8.94181 5.7513 8.83713 5.67753L6.22744 3.83819C6.10699 3.75324 5.94898 3.74254 5.81817 3.81036C5.68733 3.87826 5.60509 4.01359 5.60509 4.16094V5.60539H0.80461C0.847705 5.02944 0.984186 4.48055 1.19907 3.97238C1.59423 3.03787 2.25542 2.24153 3.08718 1.67968C3.91922 1.11784 4.91952 0.790239 5.99997 0.790127C6.72045 0.790183 7.40475 0.935865 8.02789 1.1994C8.96238 1.59457 9.75869 2.25575 10.3205 3.08745C10.8824 3.9195 11.21 4.91985 11.2101 6.00028C11.2101 6.72076 11.0643 7.40503 10.8008 8.02817C10.4057 8.96263 9.7445 9.75897 8.91274 10.3209C8.0807 10.8827 7.0804 11.2103 5.99994 11.2104C5.78184 11.2104 5.60506 11.3872 5.60506 11.6053C5.60506 11.8234 5.78187 12.0002 5.99994 12.0002C6.82727 12.0002 7.61749 11.8323 8.33551 11.5285C9.41275 11.0728 10.3281 10.3125 10.9749 9.35514C11.6218 8.39802 12 7.24151 11.9999 6.00025C11.9999 5.17295 11.832 4.38273 11.5282 3.66465C11.0725 2.58742 10.3123 1.67206 9.35489 1.02516ZM6.39485 4.92234L7.92418 6.00022L6.39485 7.0781V4.92234Z" fill="#24A959"/>
</g>
<defs>
<clipPath id="clip0_2989_204">
<rect width="12" height="12" fill="white"/>
</clipPath>
</defs>
</svg>
