<svg width="14" height="17" viewBox="0 0 14 17" fill="none" xmlns="http://www.w3.org/2000/svg">
<path fill-rule="evenodd" clip-rule="evenodd" d="M3.55554 2.1791H5.1412C5.0798 1.78258 4.74822 1.47965 4.34837 1.47965C3.94851 1.47965 3.61693 1.78257 3.55554 2.1791ZM5.15138 2.65875H3.54536V3.04748C3.54536 3.50609 3.904 3.87785 4.34643 3.87785C4.79098 3.87785 5.15138 3.50429 5.15138 3.04346V2.65875ZM3.08263 2.31203C3.08263 1.5874 3.64931 1 4.34837 1C5.04743 1 5.61411 1.58744 5.61411 2.31203V3.04346C5.61411 3.28114 5.55323 3.50409 5.44675 3.69645C6.17452 3.78514 6.73915 4.42667 6.73915 5.20487V6.99555C6.73915 7.37525 6.4422 7.68305 6.07591 7.68305H4.22362C4.09584 7.68305 3.99226 7.57568 3.99226 7.44323C3.99226 7.31077 4.09584 7.2034 4.22362 7.2034H6.07591C6.18665 7.2034 6.27642 7.11035 6.27642 6.99555V5.20487C6.27642 4.63093 5.82754 4.16564 5.27385 4.16564H5.01843L5.19325 5.60291C5.21819 5.80804 5.13936 6.01206 4.9846 6.14257M4.9846 6.14257L4.6135 6.45555C4.45911 6.58577 4.2377 6.58583 4.08328 6.45556L3.71217 6.14257C3.55751 6.0121 3.47854 5.80815 3.50352 5.60291L3.67833 4.16564H3.42295C2.86926 4.16564 2.42038 4.63093 2.42038 5.20487V6.99555C2.42038 7.11035 2.51015 7.2034 2.62089 7.2034H3.12338C3.25116 7.2034 3.35475 7.31077 3.35475 7.44323C3.35475 7.57568 3.25116 7.68305 3.12338 7.68305H2.62089C2.2546 7.68305 1.95766 7.37525 1.95766 6.99555V5.20487C1.95766 4.42723 2.52146 3.78607 3.24846 3.69665C3.14294 3.50529 3.08263 3.28369 3.08263 3.04748V2.31203M4.12384 4.33724C4.1961 4.35055 4.27048 4.3575 4.34643 4.3575C4.42371 4.3575 4.49937 4.35033 4.57283 4.3366L4.73416 5.6629C4.73914 5.70386 4.72339 5.74452 4.69258 5.7705L4.34839 6.06079L4.00423 5.77053C3.97334 5.74446 3.95763 5.70379 3.96261 5.66296L4.12384 4.33724ZM8.4963 4.60631H10.082C10.0206 4.20977 9.68899 3.90682 9.28913 3.90682C8.88929 3.90682 8.55768 4.20976 8.4963 4.60631ZM8.48612 5.08595V5.47466C8.48612 5.93327 8.84477 6.30502 9.28716 6.30502C9.73175 6.30502 10.0921 5.93146 10.0921 5.47063V5.08595H8.48612ZM8.02339 4.7392C8.02339 4.01457 8.59011 3.42717 9.28913 3.42717C9.98819 3.42717 10.5549 4.01461 10.5549 4.7392V5.47063C10.5549 5.70832 10.494 5.93127 10.3875 6.12363C11.1153 6.21233 11.6799 6.85385 11.6799 7.63205V8.03786H12.4553C12.7561 8.03786 13 8.29062 13 8.60247V8.89998C13 9.12492 12.91 9.33982 12.7515 9.49344L10.2716 11.8968C10.1783 11.9873 10.0319 11.9822 9.94461 11.8854C9.85735 11.7887 9.86227 11.6369 9.9556 11.5465L12.4355 9.14308C12.5004 9.08016 12.5373 8.99211 12.5373 8.89998V8.60247C12.5373 8.55555 12.5006 8.51751 12.4553 8.51751H1.46272V8.89966C1.46272 8.99193 1.49967 9.08005 1.56473 9.14298L5.27372 12.7307H8.72751L8.7337 12.7307L9.17295 12.305C9.26628 12.2146 9.41269 12.2197 9.49996 12.3164C9.58723 12.4131 9.58231 12.5649 9.48897 12.6554L9.21235 12.9235C9.35976 13.061 9.45244 13.2604 9.45244 13.4821C9.45244 13.8972 9.12785 14.2336 8.72751 14.2336H8.61954V15.5747C8.61954 15.8096 8.43581 16 8.20929 16H5.79071C5.5641 16 5.38046 15.8096 5.38046 15.5747V14.2336H5.27249C4.87211 14.2336 4.54756 13.8972 4.54756 13.4821C4.54756 13.2585 4.64177 13.0577 4.79129 12.9201L1.24905 9.49367C1.09015 9.33999 1 9.12484 1 8.89966V8.40559C1 8.2025 1.15883 8.03786 1.35476 8.03786H6.89839V7.63205C6.89839 6.8544 7.46221 6.21323 8.18922 6.12382C8.0837 5.93246 8.02339 5.71086 8.02339 5.47466V4.7392ZM8.61906 6.59281H8.36368C7.80999 6.59281 7.36111 7.0581 7.36111 7.63205V8.03786H8.44336L8.44425 8.03009L8.61906 6.59281ZM8.9097 8.03786H9.66856L9.51359 6.76377C9.44012 6.7775 9.36445 6.78467 9.28716 6.78467C9.21121 6.78467 9.13683 6.77773 9.06457 6.76442L8.9097 8.03786ZM9.95919 6.59281L10.134 8.03007L10.1349 8.03786H11.2172V7.63205C11.2172 7.0581 10.7683 6.59281 10.2146 6.59281H9.95919ZM5.84319 14.2336V15.5204H8.15681V14.2336H5.84319ZM5.27249 13.2103C5.12767 13.2103 5.01028 13.332 5.01028 13.4821C5.01028 13.6323 5.12767 13.7539 5.27249 13.7539H8.72751C8.87231 13.7539 8.98972 13.6323 8.98972 13.4821C8.98972 13.332 8.87234 13.2103 8.72751 13.2103H5.27249Z" fill="#6E6A7C"/>
<path d="M3.08263 2.31203C3.08263 1.5874 3.64931 1 4.34837 1C5.04743 1 5.61411 1.58744 5.61411 2.31203V3.04346C5.61411 3.28114 5.55323 3.50409 5.44675 3.69645C6.17452 3.78514 6.73915 4.42667 6.73915 5.20487V6.99555C6.73915 7.37525 6.4422 7.68305 6.07591 7.68305H4.22362C4.09584 7.68305 3.99226 7.57568 3.99226 7.44323C3.99226 7.31077 4.09584 7.2034 4.22362 7.2034H6.07591C6.18665 7.2034 6.27642 7.11035 6.27642 6.99555V5.20487C6.27642 4.63093 5.82754 4.16564 5.27385 4.16564H5.01843L5.19325 5.60291C5.21819 5.80804 5.13936 6.01206 4.9846 6.14257M3.08263 2.31203L4.9846 6.14257M3.08263 2.31203V3.04748C3.08263 3.28369 3.14294 3.50529 3.24846 3.69665C2.52146 3.78607 1.95766 4.42723 1.95766 5.20487V6.99555C1.95766 7.37525 2.2546 7.68305 2.62089 7.68305H3.12338C3.25116 7.68305 3.35475 7.57568 3.35475 7.44323C3.35475 7.31077 3.25116 7.2034 3.12338 7.2034H2.62089C2.51015 7.2034 2.42038 7.11035 2.42038 6.99555V5.20487C2.42038 4.63093 2.86926 4.16564 3.42295 4.16564H3.67833L3.50352 5.60291C3.47854 5.80815 3.55751 6.0121 3.71217 6.14257L4.08328 6.45556C4.2377 6.58583 4.45911 6.58577 4.6135 6.45555L4.9846 6.14257M5.1412 2.1791H3.55554C3.61693 1.78257 3.94851 1.47965 4.34837 1.47965C4.74822 1.47965 5.0798 1.78258 5.1412 2.1791ZM3.54536 2.65875H5.15138V3.04346C5.15138 3.50429 4.79098 3.87785 4.34643 3.87785C3.904 3.87785 3.54536 3.50609 3.54536 3.04748V2.65875ZM4.12384 4.33724C4.1961 4.35055 4.27048 4.3575 4.34643 4.3575C4.42371 4.3575 4.49937 4.35033 4.57283 4.3366L4.73416 5.6629C4.73914 5.70386 4.72339 5.74452 4.69258 5.7705L4.34839 6.06079L4.00423 5.77054C3.97334 5.74446 3.95763 5.70379 3.96261 5.66296L4.12384 4.33724ZM10.082 4.60631H8.4963C8.55768 4.20976 8.88929 3.90682 9.28913 3.90682C9.68899 3.90682 10.0206 4.20977 10.082 4.60631ZM8.48612 5.47466V5.08595H10.0921V5.47063C10.0921 5.93146 9.73175 6.30502 9.28716 6.30502C8.84477 6.30502 8.48612 5.93327 8.48612 5.47466ZM9.28913 3.42717C8.59011 3.42717 8.02339 4.01457 8.02339 4.7392V5.47466C8.02339 5.71086 8.0837 5.93246 8.18922 6.12382C7.46221 6.21323 6.89839 6.8544 6.89839 7.63205V8.03786H1.35476C1.15883 8.03786 1 8.2025 1 8.40559V8.89966C1 9.12484 1.09015 9.33999 1.24905 9.49367L4.79129 12.9201C4.64177 13.0577 4.54756 13.2585 4.54756 13.4821C4.54756 13.8972 4.87211 14.2336 5.27249 14.2336H5.38046V15.5747C5.38046 15.8096 5.5641 16 5.79071 16H8.20929C8.43581 16 8.61954 15.8096 8.61954 15.5747V14.2336H8.72751C9.12785 14.2336 9.45244 13.8972 9.45244 13.4821C9.45244 13.2604 9.35976 13.061 9.21235 12.9235L9.48897 12.6554C9.58231 12.5649 9.58723 12.4131 9.49996 12.3164C9.41269 12.2197 9.26628 12.2146 9.17295 12.305L8.7337 12.7307L8.72751 12.7307H5.27372L1.56473 9.14298C1.49967 9.08005 1.46272 8.99193 1.46272 8.89966V8.51751H12.4553C12.5006 8.51751 12.5373 8.55555 12.5373 8.60247V8.89998C12.5373 8.99211 12.5004 9.08016 12.4355 9.14308L9.9556 11.5465C9.86227 11.6369 9.85735 11.7887 9.94461 11.8854C10.0319 11.9822 10.1783 11.9873 10.2716 11.8968L12.7515 9.49344C12.91 9.33982 13 9.12491 13 8.89998V8.60247C13 8.29061 12.7561 8.03786 12.4553 8.03786H11.6799V7.63205C11.6799 6.85385 11.1153 6.21233 10.3875 6.12363C10.494 5.93127 10.5549 5.70832 10.5549 5.47063V4.7392C10.5549 4.01461 9.98819 3.42717 9.28913 3.42717ZM8.36368 6.59281H8.61906L8.44425 8.03009L8.44336 8.03786H7.36111V7.63205C7.36111 7.05811 7.80999 6.59281 8.36368 6.59281ZM9.66857 8.03786H8.9097L9.06457 6.76442C9.13683 6.77773 9.21121 6.78467 9.28716 6.78467C9.36445 6.78467 9.44012 6.7775 9.51359 6.76377L9.66857 8.03786ZM10.134 8.03007L9.95919 6.59281H10.2146C10.7683 6.59281 11.2172 7.05811 11.2172 7.63205V8.03786H10.1349L10.134 8.03007ZM5.84319 15.5204V14.2336H8.15681V15.5204H5.84319ZM5.01028 13.4821C5.01028 13.332 5.12767 13.2103 5.27249 13.2103H8.72751C8.87234 13.2103 8.98972 13.332 8.98972 13.4821C8.98972 13.6323 8.87231 13.7539 8.72751 13.7539H5.27249C5.12767 13.7539 5.01028 13.6323 5.01028 13.4821Z" stroke="#6E6A7C" stroke-width="0.1" stroke-miterlimit="10" stroke-linecap="round" stroke-linejoin="round"/>
</svg>
