<svg width="16" height="16" viewBox="0 0 16 16" fill="none" xmlns="http://www.w3.org/2000/svg">
<path d="M4.33333 5.33333C4.14924 5.33333 4 5.48257 4 5.66666V6.33333C4 6.51742 4.14924 6.66666 4.33333 6.66666H5C5.18409 6.66666 5.33333 6.51742 5.33333 6.33333V5.66666C5.33333 5.48257 5.18409 5.33333 5 5.33333H4.33333Z" fill="#030F35"/>
<path d="M4 7.66666C4 7.48259 4.14924 7.33333 4.33333 7.33333H5C5.18409 7.33333 5.33333 7.48259 5.33333 7.66666V8.33333C5.33333 8.51739 5.18409 8.66666 5 8.66666H4.33333C4.14924 8.66666 4 8.51739 4 8.33333V7.66666Z" fill="#030F35"/>
<path d="M4.33333 9.33333C4.14924 9.33333 4 9.48259 4 9.66666V10.3333C4 10.5174 4.14924 10.6667 4.33333 10.6667H5C5.18409 10.6667 5.33333 10.5174 5.33333 10.3333V9.66666C5.33333 9.48259 5.18409 9.33333 5 9.33333H4.33333Z" fill="#030F35"/>
<path d="M6 5.66666C6 5.48257 6.14924 5.33333 6.33333 5.33333H7C7.18407 5.33333 7.33333 5.48257 7.33333 5.66666V6.33333C7.33333 6.51742 7.18407 6.66666 7 6.66666H6.33333C6.14924 6.66666 6 6.51742 6 6.33333V5.66666Z" fill="#030F35"/>
<path d="M6.33333 7.33333C6.14924 7.33333 6 7.48259 6 7.66666V8.33333C6 8.51739 6.14924 8.66666 6.33333 8.66666H7C7.18407 8.66666 7.33333 8.51739 7.33333 8.33333V7.66666C7.33333 7.48259 7.18407 7.33333 7 7.33333H6.33333Z" fill="#030F35"/>
<path d="M6 9.66666C6 9.48259 6.14924 9.33333 6.33333 9.33333H7C7.18407 9.33333 7.33333 9.48259 7.33333 9.66666V10.3333C7.33333 10.5174 7.18407 10.6667 7 10.6667H6.33333C6.14924 10.6667 6 10.5174 6 10.3333V9.66666Z" fill="#030F35"/>
<path d="M8.33333 5.33333C8.14927 5.33333 8 5.48257 8 5.66666V6.33333C8 6.51742 8.14927 6.66666 8.33333 6.66666H9C9.18407 6.66666 9.33333 6.51742 9.33333 6.33333V5.66666C9.33333 5.48257 9.18407 5.33333 9 5.33333H8.33333Z" fill="#030F35"/>
<path d="M8 7.66666C8 7.48259 8.14927 7.33333 8.33333 7.33333H9C9.18407 7.33333 9.33333 7.48259 9.33333 7.66666V8.33333C9.33333 8.51739 9.18407 8.66666 9 8.66666H8.33333C8.14927 8.66666 8 8.51739 8 8.33333V7.66666Z" fill="#030F35"/>
<path d="M8.33333 9.33333C8.14927 9.33333 8 9.48259 8 9.66666V10.3333C8 10.5174 8.14927 10.6667 8.33333 10.6667H9C9.18407 10.6667 9.33333 10.5174 9.33333 10.3333V9.66666C9.33333 9.48259 9.18407 9.33333 9 9.33333H8.33333Z" fill="#030F35"/>
<path fill-rule="evenodd" clip-rule="evenodd" d="M10.5169 1.43609C10.9347 1.33969 11.3335 1.65696 11.3335 2.08569V3.46066L13.6316 4.60973C13.8575 4.72265 14.0002 4.9535 14.0002 5.20601V14H14.3335C14.5176 14 14.6668 14.1493 14.6668 14.3333C14.6668 14.5174 14.5176 14.6667 14.3335 14.6667H13.6678H13.6668H13.6659H11.0015H11.0002H10.9988H2.33481H2.3335H2.33218H1.66683C1.48274 14.6667 1.3335 14.5174 1.3335 14.3333C1.3335 14.1493 1.48274 14 1.66683 14H2.00016V3.93184C2.00016 3.6214 2.21444 3.35205 2.51692 3.28225L10.5169 1.43609ZM13.3335 14V5.20601L11.3335 4.20601V14H13.3335ZM10.6668 3.65944C10.6668 3.66409 10.6668 3.66874 10.6668 3.67338V14H8.00016V12.6667C8.00016 12.2985 7.7017 12 7.3335 12H6.00016C5.63198 12 5.3335 12.2985 5.3335 12.6667V14H2.66683V3.93184L10.6668 2.08569V3.65944ZM6.00016 12.6667V14H7.3335V12.6667H6.00016Z" fill="#030F35" stroke="#030F35" stroke-width="0.2"/>
</svg>
