<svg width="14" height="14" viewBox="0 0 14 14" fill="none" xmlns="http://www.w3.org/2000/svg">
<path fill-rule="evenodd" clip-rule="evenodd" d="M5.66094 1H8.33906C9.53574 0.999989 10.4836 0.999981 11.2254 1.10209C11.9888 1.20717 12.6068 1.42859 13.0941 1.9275C13.5814 2.4264 13.7976 3.05904 13.9003 3.84065C14 4.60013 14 5.57055 14 6.79573V8.20427C14 9.42945 14 10.3999 13.9003 11.1593C13.7976 11.941 13.5814 12.5736 13.0941 13.0725C12.6068 13.5714 11.9888 13.7928 11.2254 13.8979C10.4836 14 9.53574 14 8.33906 14H5.66094C4.46426 14 3.5164 14 2.77459 13.8979C2.01115 13.7928 1.39323 13.5714 0.905926 13.0725C0.41862 12.5736 0.202357 11.941 0.099716 11.1593C-1.83388e-05 10.3999 -1.01147e-05 9.42945 2.09423e-07 8.20428V6.79572C-1.01147e-05 5.57055 -1.83388e-05 4.60013 0.099716 3.84065C0.202357 3.05904 0.41862 2.4264 0.905926 1.9275C1.39323 1.42859 2.01115 1.20717 2.77459 1.10209C3.5164 0.999981 4.46426 0.999989 5.66094 1ZM2.90474 2.09317C2.24961 2.18335 1.87217 2.35246 1.59659 2.6346C1.32101 2.91674 1.15583 3.30317 1.06775 3.9739C0.977782 4.65901 0.976745 5.56212 0.976745 6.83333V8.16667C0.976745 9.43788 0.977782 10.341 1.06775 11.0261C1.15583 11.6968 1.32101 12.0833 1.59659 12.3654C1.87217 12.6475 2.24961 12.8167 2.90474 12.9068C3.57392 12.9989 4.45602 13 5.69767 13H8.30233C9.54398 13 10.4261 12.9989 11.0953 12.9068C11.7504 12.8167 12.1278 12.6475 12.4034 12.3654C12.679 12.0833 12.8442 11.6968 12.9323 11.0261C13.0222 10.341 13.0233 9.43788 13.0233 8.16667V6.83333C13.0233 5.56212 13.0222 4.65901 12.9323 3.9739C12.8442 3.30317 12.679 2.91674 12.4034 2.6346C12.1278 2.35246 11.7504 2.18335 11.0953 2.09317C10.4261 2.00106 9.54398 2 8.30233 2H5.69768C4.45602 2 3.57392 2.00106 2.90474 2.09317Z" fill="#7367F0"/>
<path fill-rule="evenodd" clip-rule="evenodd" d="M3.74419 0C4.01391 0 4.23256 0.223858 4.23256 0.5V1.5C4.23256 1.77614 4.01391 2 3.74419 2C3.47447 2 3.25581 1.77614 3.25581 1.5V0.5C3.25581 0.223858 3.47447 0 3.74419 0Z" fill="#7367F0"/>
<path fill-rule="evenodd" clip-rule="evenodd" d="M10.2558 0C10.5255 0 10.7442 0.223858 10.7442 0.5V1.5C10.7442 1.77614 10.5255 2 10.2558 2C9.98609 2 9.76744 1.77614 9.76744 1.5V0.5C9.76744 0.223858 9.98609 0 10.2558 0Z" fill="#7367F0"/>
<path fill-rule="evenodd" clip-rule="evenodd" d="M0.325582 4.83333C0.325582 4.55719 0.544233 4.33333 0.813954 4.33333H13.186C13.4558 4.33333 13.6744 4.55719 13.6744 4.83333C13.6744 5.10948 13.4558 5.33333 13.186 5.33333H0.813954C0.544233 5.33333 0.325582 5.10948 0.325582 4.83333Z" fill="#7367F0"/>
<path d="M10.907 10.1667C10.907 10.5349 10.6154 10.8333 10.2558 10.8333C9.89619 10.8333 9.60465 10.5349 9.60465 10.1667C9.60465 9.79848 9.89619 9.5 10.2558 9.5C10.6154 9.5 10.907 9.79848 10.907 10.1667Z" fill="#7367F0"/>
<path d="M10.907 7.5C10.907 7.86819 10.6154 8.16667 10.2558 8.16667C9.89619 8.16667 9.60465 7.86819 9.60465 7.5C9.60465 7.13181 9.89619 6.83333 10.2558 6.83333C10.6154 6.83333 10.907 7.13181 10.907 7.5Z" fill="#7367F0"/>
<path d="M7.65116 10.1667C7.65116 10.5349 7.35963 10.8333 7 10.8333C6.64037 10.8333 6.34884 10.5349 6.34884 10.1667C6.34884 9.79848 6.64037 9.5 7 9.5C7.35963 9.5 7.65116 9.79848 7.65116 10.1667Z" fill="#7367F0"/>
<path d="M7.65116 7.5C7.65116 7.86819 7.35963 8.16667 7 8.16667C6.64037 8.16667 6.34884 7.86819 6.34884 7.5C6.34884 7.13181 6.64037 6.83333 7 6.83333C7.35963 6.83333 7.65116 7.13181 7.65116 7.5Z" fill="#7367F0"/>
<path d="M4.39535 10.1667C4.39535 10.5349 4.10381 10.8333 3.74419 10.8333C3.38456 10.8333 3.09302 10.5349 3.09302 10.1667C3.09302 9.79848 3.38456 9.5 3.74419 9.5C4.10381 9.5 4.39535 9.79848 4.39535 10.1667Z" fill="#7367F0"/>
<path d="M4.39535 7.5C4.39535 7.86819 4.10381 8.16667 3.74419 8.16667C3.38456 8.16667 3.09302 7.86819 3.09302 7.5C3.09302 7.13181 3.38456 6.83333 3.74419 6.83333C4.10381 6.83333 4.39535 7.13181 4.39535 7.5Z" fill="#7367F0"/>
</svg>
