<svg width="14" height="14" viewBox="0 0 14 14" fill="none" xmlns="http://www.w3.org/2000/svg">
<path d="M11.5024 2.14375H11.1078V1.75C11.1078 1.05044 10.5386 0.48125 9.839 0.48125H2.49775C1.79819 0.48125 1.229 1.05044 1.229 1.75V10.5862C1.229 11.2857 1.79819 11.8549 2.49775 11.8549H2.89238V12.25C2.89238 12.9496 3.46157 13.5187 4.16113 13.5187H11.5024C12.2019 13.5187 12.7711 12.9496 12.7711 12.25V3.4125C12.7711 2.71294 12.2019 2.14375 11.5024 2.14375ZM2.0165 10.5862V1.75C2.0165 1.48487 2.23263 1.26875 2.49775 1.26875H9.839C10.1041 1.26875 10.3203 1.48487 10.3203 1.75V10.5862C10.3203 10.8513 10.1041 11.0674 9.839 11.0674H2.49775C2.23263 11.0674 2.0165 10.8513 2.0165 10.5862ZM11.9836 12.25C11.9836 12.5151 11.7675 12.7312 11.5024 12.7312H4.16113C3.896 12.7312 3.67988 12.5151 3.67988 12.25V11.8549H9.83944C10.539 11.8549 11.1082 11.2857 11.1082 10.5862V2.93125H11.5028C11.7679 2.93125 11.9841 3.14737 11.9841 3.4125L11.9836 12.25Z" fill="#6E6A7C"/>
<path d="M8.61498 3.74063H5.77998C5.56254 3.74063 5.38623 3.91694 5.38623 4.13438C5.38623 4.35181 5.56254 4.52813 5.77998 4.52813H8.61498C8.83242 4.52813 9.00873 4.35181 9.00873 4.13438C9.00873 3.91694 8.83242 3.74063 8.61498 3.74063Z" fill="#6E6A7C"/>
<path d="M4.27989 3.74063H3.72383C3.50639 3.74063 3.33008 3.91694 3.33008 4.13438C3.33008 4.35181 3.50639 4.52813 3.72383 4.52813H4.27989C4.49733 4.52813 4.67364 4.35181 4.67364 4.13438C4.67364 3.91694 4.49733 3.74063 4.27989 3.74063Z" fill="#6E6A7C"/>
<path d="M8.61498 5.775H5.77998C5.56254 5.775 5.38623 5.95131 5.38623 6.16875C5.38623 6.38619 5.56254 6.5625 5.77998 6.5625H8.61498C8.83242 6.5625 9.00873 6.38619 9.00873 6.16875C9.00873 5.95131 8.83242 5.775 8.61498 5.775Z" fill="#6E6A7C"/>
<path d="M4.27989 5.775H3.72383C3.50639 5.775 3.33008 5.95131 3.33008 6.16875C3.33008 6.38619 3.50639 6.5625 3.72383 6.5625H4.27989C4.49733 6.5625 4.67364 6.38619 4.67364 6.16875C4.67364 5.95131 4.49733 5.775 4.27989 5.775Z" fill="#6E6A7C"/>
<path d="M8.61498 7.80937H5.77998C5.56254 7.80937 5.38623 7.98569 5.38623 8.20312C5.38623 8.42056 5.56254 8.59687 5.77998 8.59687H8.61498C8.83242 8.59687 9.00873 8.42056 9.00873 8.20312C9.00873 7.98569 8.83242 7.80937 8.61498 7.80937Z" fill="#6E6A7C"/>
<path d="M4.27989 7.80937H3.72383C3.50639 7.80937 3.33008 7.98569 3.33008 8.20312C3.33008 8.42056 3.50639 8.59687 3.72383 8.59687H4.27989C4.49733 8.59687 4.67364 8.42056 4.67364 8.20312C4.67364 7.98569 4.49733 7.80937 4.27989 7.80937Z" fill="#6E6A7C"/>
</svg>
