<svg width="16" height="16" viewBox="0 0 17 17" fill="none" xmlns="http://www.w3.org/2000/svg">
<path fill-rule="evenodd" clip-rule="evenodd" d="M7.00008 0.0416565C4.81395 0.0416565 3.04175 1.81386 3.04175 3.99999C3.04175 6.18612 4.81395 7.95832 7.00008 7.95832C9.18621 7.95832 10.9584 6.18612 10.9584 3.99999C10.9584 1.81386 9.18621 0.0416565 7.00008 0.0416565ZM4.29175 3.99999C4.29175 2.50422 5.50431 1.29166 7.00008 1.29166C8.49585 1.29166 9.70842 2.50422 9.70842 3.99999C9.70842 5.49576 8.49585 6.70832 7.00008 6.70832C5.50431 6.70832 4.29175 5.49576 4.29175 3.99999Z" fill="#2B3344"/>
<path fill-rule="evenodd" clip-rule="evenodd" d="M7.00008 9.20832C5.30064 9.20832 3.73135 9.60062 2.56521 10.267C1.41675 10.9232 0.541748 11.9251 0.541748 13.1667C0.541748 14.4082 1.41675 15.4101 2.56521 16.0663C3.73135 16.7327 5.30064 17.125 7.00008 17.125C8.69953 17.125 10.2688 16.7327 11.435 16.0663C12.5834 15.4101 13.4584 14.4082 13.4584 13.1667C13.4584 11.9251 12.5834 10.9232 11.435 10.267C10.2688 9.60062 8.69953 9.20832 7.00008 9.20832ZM1.79175 13.1667C1.79175 12.5673 2.22259 11.9025 3.18538 11.3523C4.13049 10.8122 5.47787 10.4583 7.00008 10.4583C8.5223 10.4583 9.86967 10.8122 10.8148 11.3523C11.7776 11.9025 12.2084 12.5673 12.2084 13.1667C12.2084 13.7661 11.7776 14.4309 10.8148 14.981C9.86967 15.5211 8.5223 15.875 7.00008 15.875C5.47787 15.875 4.13049 15.5211 3.18538 14.981C2.22259 14.4309 1.79175 13.7661 1.79175 13.1667Z" fill="#2B3344"/>
</svg>
