<svg width="22" height="22" viewBox="0 0 22 22" fill="none" xmlns="http://www.w3.org/2000/svg">
<path fill-rule="evenodd" clip-rule="evenodd" d="M1.60425 5.95832C1.60425 3.55358 3.55368 1.60416 5.95842 1.60416C8.36315 1.60416 10.3126 3.55358 10.3126 5.95832V8.40277C10.3126 8.42227 10.3126 8.44186 10.3127 8.46153C10.3131 8.6839 10.3136 8.91585 10.2579 9.12351C10.1096 9.6771 9.67719 10.1095 9.1236 10.2578C8.91594 10.3135 8.68399 10.313 8.46163 10.3126C8.44195 10.3125 8.42236 10.3125 8.40286 10.3125H5.95842C3.55368 10.3125 1.60425 8.36306 1.60425 5.95832ZM5.95842 2.97916C4.31307 2.97916 2.97925 4.31298 2.97925 5.95832C2.97925 7.60367 4.31307 8.93749 5.95842 8.93749H8.40286C8.55117 8.93749 8.63947 8.93732 8.70579 8.9343C8.74752 8.9324 8.76551 8.92981 8.76996 8.92907C8.84723 8.90753 8.90762 8.84714 8.92916 8.76987C8.9299 8.76542 8.93249 8.74743 8.93439 8.7057C8.93742 8.63938 8.93758 8.55108 8.93758 8.40277V5.95832C8.93758 4.31298 7.60376 2.97916 5.95842 2.97916Z" fill="#2B3344"/>
<path fill-rule="evenodd" clip-rule="evenodd" d="M13.5385 11.6874C13.5582 11.6875 13.5778 11.6875 13.5973 11.6875H16.0417C18.4465 11.6875 20.3959 13.6369 20.3959 16.0417C20.3959 18.4464 18.4465 20.3958 16.0417 20.3958C13.637 20.3958 11.6876 18.4464 11.6876 16.0417V13.5972C11.6876 13.5777 11.6875 13.5581 11.6875 13.5384C11.6871 13.3161 11.6866 13.0841 11.7422 12.8765C11.8906 12.3229 12.323 11.8905 12.8766 11.7422C13.0842 11.6865 13.3162 11.687 13.5385 11.6874ZM13.2302 13.0709C13.1529 13.0924 13.0925 13.1528 13.071 13.2301C13.0703 13.2346 13.0677 13.2526 13.0658 13.2943C13.0627 13.3606 13.0626 13.4489 13.0626 13.5972V16.0417C13.0626 17.687 14.3964 19.0208 16.0417 19.0208C17.6871 19.0208 19.0209 17.687 19.0209 16.0417C19.0209 14.3963 17.6871 13.0625 16.0417 13.0625H13.5973C13.449 13.0625 13.3607 13.0627 13.2944 13.0657C13.2526 13.0676 13.2347 13.0702 13.2302 13.0709Z" fill="#2B3344"/>
<path fill-rule="evenodd" clip-rule="evenodd" d="M8.7045 13.0727C8.58613 13.063 8.42645 13.0625 8.15842 13.0625H5.95842C4.31307 13.0625 2.97925 14.3963 2.97925 16.0417C2.97925 17.687 4.31307 19.0208 5.95842 19.0208C7.60376 19.0208 8.93758 17.687 8.93758 16.0417V13.8417C8.93758 13.5736 8.93705 13.4139 8.92738 13.2956C8.92147 13.2233 8.91369 13.193 8.91116 13.1848C8.8896 13.1439 8.85616 13.1105 8.81524 13.0889C8.8071 13.0864 8.77674 13.0786 8.7045 13.0727ZM8.81761 13.0897L8.81623 13.0892L8.81761 13.0897ZM8.91033 13.1825L8.91083 13.1838L8.91033 13.1825ZM8.81646 11.7023C9.01184 11.7182 9.22558 11.7548 9.43669 11.8623C9.73853 12.0161 9.98394 12.2615 10.1377 12.5634C10.2453 12.7745 10.2818 12.9882 10.2978 13.1836C10.3126 13.3648 10.3126 13.5816 10.3126 13.8176L10.3126 16.0417C10.3126 18.4464 8.36315 20.3958 5.95842 20.3958C3.55368 20.3958 1.60425 18.4464 1.60425 16.0417C1.60425 13.6369 3.55368 11.6875 5.95842 11.6875L8.18245 11.6875C8.41848 11.6875 8.63525 11.6875 8.81646 11.7023Z" fill="#2B3344"/>
<path fill-rule="evenodd" clip-rule="evenodd" d="M11.6876 5.95832C11.6876 3.55358 13.637 1.60416 16.0417 1.60416C18.4465 1.60416 20.3959 3.55358 20.3959 5.95832C20.3959 8.36306 18.4465 10.3125 16.0417 10.3125H13.4227C13.4143 10.3125 13.4059 10.3125 13.3975 10.3125C13.3022 10.3126 13.2033 10.3127 13.1121 10.3024C12.3684 10.2186 11.7815 9.63166 11.6977 8.88793C11.6874 8.79681 11.6875 8.69786 11.6876 8.60258C11.6876 8.59414 11.6876 8.58574 11.6876 8.57737V5.95832ZM16.0417 2.97916C14.3964 2.97916 13.0626 4.31298 13.0626 5.95832V8.57737C13.0626 8.64084 13.0626 8.67862 13.0632 8.70713C13.0635 8.72526 13.064 8.73316 13.0641 8.73505C13.0765 8.84043 13.1596 8.92356 13.265 8.93593C13.2669 8.93606 13.2748 8.93655 13.2929 8.9369C13.3215 8.93746 13.3592 8.93749 13.4227 8.93749H16.0417C17.6871 8.93749 19.0209 7.60367 19.0209 5.95832C19.0209 4.31298 17.6871 2.97916 16.0417 2.97916Z" fill="#2B3344"/>
</svg>
