<svg width="12" height="12" viewBox="0 0 12 12" fill="none" xmlns="http://www.w3.org/2000/svg">
<path d="M10.4673 2.91544L7.65487 0.103008C7.58817 0.0362813 7.49702 0 7.40625 0H2.48438C1.90282 0 1.42969 0.473133 1.42969 1.05469V10.9453C1.42969 11.5269 1.90282 12 2.48438 12H9.51562C10.0972 12 10.5703 11.5269 10.5703 10.9453V3.16406C10.5703 3.06759 10.5295 2.97757 10.4673 2.91544ZM7.75781 1.2003L9.37001 2.8125H8.10938C7.91552 2.8125 7.75781 2.65479 7.75781 2.46094V1.2003ZM9.51562 11.2969H2.48438C2.29052 11.2969 2.13281 11.1392 2.13281 10.9453V1.05469C2.13281 0.860836 2.29052 0.703125 2.48438 0.703125H7.05469V2.46094C7.05469 3.04249 7.52782 3.51562 8.10938 3.51562H9.86719V10.9453C9.86719 11.1392 9.70948 11.2969 9.51562 11.2969Z" fill="#EBA801"/>
<path d="M8.10938 5.67188H4.59375C4.39959 5.67188 4.24219 5.82928 4.24219 6.02344C4.24219 6.21759 4.39959 6.375 4.59375 6.375H8.10938C8.30353 6.375 8.46094 6.21759 8.46094 6.02344C8.46094 5.82928 8.30353 5.67188 8.10938 5.67188Z" fill="#EBA801"/>
<path d="M8.10938 7.07812H4.59375C4.39959 7.07812 4.24219 7.23553 4.24219 7.42969C4.24219 7.62384 4.39959 7.78125 4.59375 7.78125H8.10938C8.30353 7.78125 8.46094 7.62384 8.46094 7.42969C8.46094 7.23553 8.30353 7.07812 8.10938 7.07812Z" fill="#EBA801"/>
<path d="M8.10938 8.48438H4.59375C4.39959 8.48438 4.24219 8.64178 4.24219 8.83594C4.24219 9.03009 4.39959 9.1875 4.59375 9.1875H8.10938C8.30353 9.1875 8.46094 9.03009 8.46094 8.83594C8.46094 8.64178 8.30353 8.48438 8.10938 8.48438Z" fill="#EBA801"/>
<path d="M3.1875 6.375C3.38166 6.375 3.53906 6.2176 3.53906 6.02344C3.53906 5.82927 3.38166 5.67188 3.1875 5.67188C2.99334 5.67188 2.83594 5.82927 2.83594 6.02344C2.83594 6.2176 2.99334 6.375 3.1875 6.375Z" fill="#EBA801"/>
<path d="M3.1875 7.78125C3.38166 7.78125 3.53906 7.62385 3.53906 7.42969C3.53906 7.23552 3.38166 7.07812 3.1875 7.07812C2.99334 7.07812 2.83594 7.23552 2.83594 7.42969C2.83594 7.62385 2.99334 7.78125 3.1875 7.78125Z" fill="#EBA801"/>
<path d="M3.1875 9.1875C3.38166 9.1875 3.53906 9.0301 3.53906 8.83594C3.53906 8.64177 3.38166 8.48438 3.1875 8.48438C2.99334 8.48438 2.83594 8.64177 2.83594 8.83594C2.83594 9.0301 2.99334 9.1875 3.1875 9.1875Z" fill="#EBA801"/>
</svg>
