<svg width="22" height="22" viewBox="0 0 22 22" fill="none" xmlns="http://www.w3.org/2000/svg">
<path d="M2.75016 6.05001H19.2502C19.4933 6.05001 19.7264 5.95343 19.8983 5.78152C20.0703 5.60961 20.1668 5.37646 20.1668 5.13334C20.1668 4.89023 20.0703 4.65707 19.8983 4.48516C19.7264 4.31325 19.4933 4.21667 19.2502 4.21667H2.75016C2.50705 4.21667 2.27389 4.31325 2.10198 4.48516C1.93007 4.65707 1.8335 4.89023 1.8335 5.13334C1.8335 5.37646 1.93007 5.60961 2.10198 5.78152C2.27389 5.95343 2.50705 6.05001 2.75016 6.05001Z" fill="black"/>
<path d="M2.75016 11.9167H19.2502C19.4933 11.9167 19.7264 11.8201 19.8983 11.6482C20.0703 11.4763 20.1668 11.2431 20.1668 11C20.1668 10.7569 20.0703 10.5237 19.8983 10.3518C19.7264 10.1799 19.4933 10.0833 19.2502 10.0833H2.75016C2.50705 10.0833 2.27389 10.1799 2.10198 10.3518C1.93007 10.5237 1.8335 10.7569 1.8335 11C1.8335 11.2431 1.93007 11.4763 2.10198 11.6482C2.27389 11.8201 2.50705 11.9167 2.75016 11.9167Z" fill="black"/>
<path d="M2.75016 17.7833H19.2502C19.4933 17.7833 19.7264 17.6868 19.8983 17.5149C20.0703 17.343 20.1668 17.1098 20.1668 16.8667C20.1668 16.6236 20.0703 16.3904 19.8983 16.2185C19.7264 16.0466 19.4933 15.95 19.2502 15.95H2.75016C2.50705 15.95 2.27389 16.0466 2.10198 16.2185C1.93007 16.3904 1.8335 16.6236 1.8335 16.8667C1.8335 17.1098 1.93007 17.343 2.10198 17.5149C2.27389 17.6868 2.50705 17.7833 2.75016 17.7833Z" fill="black"/>
</svg>
