<svg width="16" height="17" viewBox="0 0 16 17" fill="none" xmlns="http://www.w3.org/2000/svg">
<g clip-path="url(#clip0_2295_1280)">
<path d="M13.4583 8.53268C13.0666 8.53268 12.75 8.85005 12.75 9.24097V14.9077C12.75 15.2979 12.4326 15.616 12.0417 15.616H2.125C1.73396 15.616 1.41671 15.2979 1.41671 14.9077V4.99097C1.41671 4.6007 1.73396 4.28268 2.125 4.28268H7.79171C8.1834 4.28268 8.5 3.9653 8.5 3.57439C8.5 3.18334 8.1834 2.86597 7.79171 2.86597H2.125C0.953423 2.86597 0 3.81939 0 4.99097V14.9077C0 16.0793 0.953423 17.0327 2.125 17.0327H12.0417C13.2133 17.0327 14.1667 16.0793 14.1667 14.9077V9.24097C14.1667 8.84927 13.85 8.53268 13.4583 8.53268Z" fill="#6E6A7C"/>
<path d="M5.60468 8.8542C5.55513 8.90375 5.5218 8.96678 5.50766 9.03474L5.00689 11.5395C4.98355 11.6556 5.02038 11.7753 5.10391 11.8596C5.17122 11.9269 5.26188 11.963 5.35475 11.963C5.37732 11.963 5.40079 11.9609 5.42414 11.956L7.92812 11.4552C7.99751 11.4409 8.06054 11.4077 8.10944 11.3581L13.7138 5.75373L11.2098 3.24988L5.60468 8.8542Z" fill="#6E6A7C"/>
<path d="M15.4452 1.51799C14.7547 0.827337 13.6312 0.827337 12.9412 1.51799L11.9609 2.49826L14.4649 5.00224L15.4452 4.02184C15.7796 3.68825 15.9637 3.24338 15.9637 2.77024C15.9637 2.29709 15.7796 1.85222 15.4452 1.51799Z" fill="#6E6A7C"/>
</g>
<defs>
<clipPath id="clip0_2295_1280">
<rect width="16" height="17" fill="white"/>
</clipPath>
</defs>
</svg>
