<svg width="9" height="9" viewBox="0 0 9 9" fill="none" xmlns="http://www.w3.org/2000/svg">
<g clip-path="url(#clip0_2963_555)">
<path d="M1.785 7.05376C1.785 7.05376 1.815 7.05376 1.82625 7.05376L2.925 6.95251C3.07875 6.93751 3.22125 6.87001 3.33 6.76126L7.4775 2.61376C7.6725 2.41876 7.78125 2.16001 7.78125 1.88626C7.78125 1.61251 7.6725 1.35376 7.4775 1.15876L7.21125 0.892506C6.82125 0.502506 6.1425 0.502506 5.7525 0.892506L5.22375 1.42126L1.60875 5.03626C1.5 5.14501 1.4325 5.28751 1.42125 5.44126L1.32 6.54001C1.30875 6.67876 1.3575 6.81376 1.455 6.91501C1.545 7.00501 1.66125 7.05376 1.785 7.05376ZM6.48375 1.15126C6.60375 1.15126 6.72375 1.19626 6.81375 1.29001L7.08 1.55626C7.17 1.64626 7.21875 1.76251 7.21875 1.88626C7.21875 2.01001 7.17 2.13001 7.08 2.21626L6.75 2.54626L5.82375 1.62001L6.15375 1.29001C6.24375 1.20001 6.36375 1.15126 6.48375 1.15126ZM1.98 5.49376C1.98 5.47126 1.99125 5.45251 2.00625 5.43751L5.4225 2.01751L6.34875 2.94376L2.9325 6.36001C2.9325 6.36001 2.895 6.38626 2.87625 6.38626L1.89 6.47626L1.98 5.49001V5.49376ZM8.53125 8.25001C8.53125 8.40376 8.40375 8.53126 8.25 8.53126H0.75C0.59625 8.53126 0.46875 8.40376 0.46875 8.25001C0.46875 8.09626 0.59625 7.96876 0.75 7.96876H8.25C8.40375 7.96876 8.53125 8.09626 8.53125 8.25001Z" fill="#24A959"/>
</g>
<defs>
<clipPath id="clip0_2963_555">
<rect width="9" height="9" fill="white"/>
</clipPath>
</defs>
</svg>
