<svg width="16" height="17" viewBox="0 0 16 17" fill="none" xmlns="http://www.w3.org/2000/svg">
<g clip-path="url(#clip0_2963_477)">
<path d="M2.80052 8.53268C3.18468 8.53268 3.49519 8.85005 3.49519 9.24097V14.9077C3.49519 15.2979 3.80646 15.616 4.18986 15.616H13.9159C14.2994 15.616 14.6105 15.2979 14.6105 14.9077V4.99097C14.6105 4.6007 14.2994 4.28268 13.9159 4.28268H8.35813C7.97397 4.28268 7.66346 3.9653 7.66346 3.57439C7.66346 3.18334 7.97397 2.86597 8.35813 2.86597H13.9159C15.0649 2.86597 16 3.81939 16 4.99097V14.9077C16 16.0793 15.0649 17.0327 13.9159 17.0327H4.18986C3.04081 17.0327 2.10573 16.0793 2.10573 14.9077V9.24097C2.10573 8.84927 2.41636 8.53268 2.80052 8.53268Z" fill="#6E6A7C"/>
<path d="M10.5027 8.8542C10.5512 8.90375 10.5839 8.96678 10.5978 9.03474L11.0889 11.5395C11.1118 11.6556 11.0757 11.7753 10.9938 11.8596C10.9278 11.9269 10.8389 11.963 10.7478 11.963C10.7256 11.963 10.7026 11.9609 10.6797 11.956L8.22389 11.4552C8.15584 11.4409 8.09402 11.4077 8.04606 11.3581L2.54951 5.75373L5.00534 3.24988L10.5027 8.8542Z" fill="#6E6A7C"/>
<path d="M0.852283 1.51799C1.52952 0.827337 2.63138 0.827337 3.30811 1.51799L4.26953 2.49826L1.8137 5.00224L0.852283 4.02184C0.524347 3.68825 0.343715 3.24338 0.343715 2.77024C0.343715 2.29709 0.524347 1.85222 0.852283 1.51799Z" fill="#6E6A7C"/>
</g>
<defs>
<clipPath id="clip0_2963_477">
<rect width="15.6923" height="17" fill="white" transform="matrix(-1 0 0 1 16 0)"/>
</clipPath>
</defs>
</svg>
