<svg width="14" height="14" viewBox="0 0 14 14" fill="none" xmlns="http://www.w3.org/2000/svg">
<path fill-rule="evenodd" clip-rule="evenodd" d="M12.656 9.2362C12.656 10.4184 11.6944 11.3786 10.5136 11.3786H3.48472C2.30399 11.3786 1.34228 10.4184 1.34228 9.2362V4.7638C1.34228 4.36923 1.45032 3.99865 1.63784 3.68058L5.06751 7.11025C5.58062 7.62486 6.26774 7.90842 6.99989 7.90842C7.73055 7.90842 8.41767 7.62486 8.93077 7.11025L12.3604 3.68058C12.548 3.99865 12.656 4.36921 12.656 4.7638V9.2362H12.656ZM10.5136 2.62139H3.48472C2.99712 2.62139 2.54702 2.78641 2.18696 3.06097L5.65114 6.52666C6.00972 6.88371 6.48829 7.08176 6.99989 7.08176C7.50999 7.08176 7.98859 6.88371 8.34715 6.52666L11.8113 3.06097C11.4513 2.78641 11.0012 2.62139 10.5136 2.62139ZM10.5136 1.79474H3.48472C1.84789 1.79474 0.515625 3.12701 0.515625 4.76383V9.23623C0.515625 10.8746 1.84789 12.2053 3.48472 12.2053H10.5136C12.1504 12.2053 13.4827 10.8746 13.4827 9.23623V4.7638C13.4827 3.12698 12.1504 1.79474 10.5136 1.79474Z" fill="#6E6A7C"/>
</svg>
