<svg width="22" height="22" viewBox="0 0 22 22" fill="none" xmlns="http://www.w3.org/2000/svg">
<path d="M3.00263 14.0211C2.22353 13.0089 1.83398 12.5028 1.83398 11C1.83398 9.49722 2.22353 8.99116 3.00263 7.97897C4.55828 5.95794 7.16725 3.66667 11.0007 3.66667C14.8341 3.66667 17.443 5.95794 18.9987 7.97897C19.7777 8.99116 20.1673 9.49722 20.1673 11C20.1673 12.5028 19.7777 13.0089 18.9987 14.0211C17.443 16.042 14.8341 18.3333 11.0007 18.3333C7.16725 18.3333 4.55828 16.042 3.00263 14.0211Z" stroke="#0083FF" stroke-width="1.5"/>
<path d="M13.75 11C13.75 12.5188 12.5188 13.75 11 13.75C9.48117 13.75 8.25 12.5188 8.25 11C8.25 9.48117 9.48117 8.25 11 8.25C12.5188 8.25 13.75 9.48117 13.75 11Z" stroke="#0083FF" stroke-width="1.5"/>
</svg>
