<svg width="20" height="20" viewBox="0 0 20 20" fill="none" xmlns="http://www.w3.org/2000/svg">
<path fill-rule="evenodd" clip-rule="evenodd" d="M9.99992 1.04167C7.81379 1.04167 6.04158 2.81388 6.04158 5.00001C6.04158 7.18613 7.81379 8.95834 9.99992 8.95834C12.186 8.95834 13.9583 7.18613 13.9583 5.00001C13.9583 2.81388 12.186 1.04167 9.99992 1.04167ZM7.29158 5.00001C7.29158 3.50423 8.50415 2.29167 9.99992 2.29167C11.4957 2.29167 12.7083 3.50423 12.7083 5.00001C12.7083 6.49578 11.4957 7.70834 9.99992 7.70834C8.50415 7.70834 7.29158 6.49578 7.29158 5.00001Z" fill="#2B3344"/>
<path d="M14.9999 2.70834C14.6547 2.70834 14.3749 2.98816 14.3749 3.33334C14.3749 3.67852 14.6547 3.95834 14.9999 3.95834C16.147 3.95834 16.8749 4.71311 16.8749 5.41667C16.8749 6.12023 16.147 6.87501 14.9999 6.87501C14.6547 6.87501 14.3749 7.15483 14.3749 7.50001C14.3749 7.84518 14.6547 8.12501 14.9999 8.12501C16.6143 8.12501 18.1249 7.0143 18.1249 5.41667C18.1249 3.81904 16.6143 2.70834 14.9999 2.70834Z" fill="#2B3344"/>
<path d="M5.62492 3.33334C5.62492 2.98816 5.3451 2.70834 4.99992 2.70834C3.38557 2.70834 1.87492 3.81904 1.87492 5.41667C1.87492 7.0143 3.38557 8.12501 4.99992 8.12501C5.3451 8.12501 5.62492 7.84518 5.62492 7.50001C5.62492 7.15483 5.3451 6.87501 4.99992 6.87501C3.85285 6.87501 3.12492 6.12023 3.12492 5.41667C3.12492 4.71311 3.85285 3.95834 4.99992 3.95834C5.3451 3.95834 5.62492 3.67852 5.62492 3.33334Z" fill="#2B3344"/>
<path fill-rule="evenodd" clip-rule="evenodd" d="M9.99992 10.2083C8.51303 10.2083 7.13863 10.609 6.1177 11.2896C5.10113 11.9673 4.37492 12.9722 4.37492 14.1667C4.37492 15.3611 5.10113 16.366 6.1177 17.0437C7.13863 17.7243 8.51303 18.125 9.99992 18.125C11.4868 18.125 12.8612 17.7243 13.8821 17.0437C14.8987 16.366 15.6249 15.3611 15.6249 14.1667C15.6249 12.9722 14.8987 11.9673 13.8821 11.2896C12.8612 10.609 11.4868 10.2083 9.99992 10.2083ZM5.62492 14.1667C5.62492 13.5202 6.01799 12.8584 6.81107 12.3297C7.59979 11.8039 8.72539 11.4583 9.99992 11.4583C11.2744 11.4583 12.4001 11.8039 13.1888 12.3297C13.9818 12.8584 14.3749 13.5202 14.3749 14.1667C14.3749 14.8132 13.9818 15.4749 13.1888 16.0037C12.4001 16.5295 11.2744 16.875 9.99992 16.875C8.72539 16.875 7.59979 16.5295 6.81107 16.0037C6.01799 15.4749 5.62492 14.8132 5.62492 14.1667Z" fill="#2B3344"/>
<path d="M16.0561 11.5328C16.13 11.1956 16.4633 10.9822 16.8005 11.0562C17.602 11.232 18.3243 11.5495 18.8606 11.9883C19.3964 12.4267 19.7916 13.0294 19.7916 13.75C19.7916 14.4706 19.3964 15.0733 18.8606 15.5117C18.3243 15.9505 17.602 16.2681 16.8005 16.4438C16.4633 16.5178 16.13 16.3044 16.0561 15.9672C15.9822 15.6301 16.1955 15.2968 16.5327 15.2228C17.193 15.078 17.7207 14.8293 18.069 14.5443C18.4177 14.259 18.5416 13.9803 18.5416 13.75C18.5416 13.5198 18.4177 13.241 18.069 12.9557C17.7207 12.6707 17.193 12.422 16.5327 12.2772C16.1955 12.2032 15.9822 11.87 16.0561 11.5328Z" fill="#2B3344"/>
<path d="M3.19937 11.0562C3.53654 10.9822 3.86981 11.1956 3.94374 11.5328C4.01768 11.87 3.8043 12.2032 3.46713 12.2772C2.80683 12.422 2.27913 12.6707 1.93085 12.9557C1.58211 13.241 1.45825 13.5198 1.45825 13.75C1.45825 13.9803 1.58211 14.259 1.93085 14.5443C2.27913 14.8293 2.80683 15.078 3.46713 15.2228C3.8043 15.2968 4.01768 15.6301 3.94374 15.9672C3.86981 16.3044 3.53654 16.5178 3.19937 16.4438C2.39781 16.2681 1.6755 15.9505 1.13925 15.5117C0.603459 15.0733 0.208252 14.4706 0.208252 13.75C0.208252 13.0294 0.603459 12.4267 1.13925 11.9883C1.6755 11.5495 2.39781 11.232 3.19937 11.0562Z" fill="#2B3344"/>
</svg>
