<svg width="20" height="20" viewBox="0 0 20 20" fill="none" xmlns="http://www.w3.org/2000/svg">
<path d="M9.95227 1.04166C8.02861 1.04165 6.52108 1.04164 5.34484 1.19978C4.14089 1.36165 3.19087 1.69943 2.4452 2.4451C1.69952 3.19078 1.36174 4.1408 1.19987 5.34474C1.04173 6.52098 1.04174 8.02851 1.04175 9.95217V10.0478C1.04174 11.9715 1.04173 13.479 1.19987 14.6552C1.36174 15.8592 1.69952 16.8092 2.4452 17.5549C3.19087 18.3006 4.14089 18.6383 5.34484 18.8002C6.52108 18.9583 8.02861 18.9583 9.95227 18.9583H10.0479C11.9716 18.9583 13.4791 18.9583 14.6553 18.8002C15.8593 18.6383 16.8093 18.3006 17.555 17.5549C18.3006 16.8092 18.6384 15.8592 18.8003 14.6552C18.9584 13.479 18.9584 11.9715 18.9584 10.0478V8.74999C18.9584 8.40481 18.6786 8.12499 18.3334 8.12499C17.9882 8.12499 17.7084 8.40481 17.7084 8.74999V9.99999C17.7084 11.9818 17.7071 13.4054 17.5614 14.4887C17.4182 15.554 17.1458 16.1963 16.6711 16.671C16.1964 17.1457 15.5541 17.4181 14.4888 17.5613C13.4055 17.707 11.9819 17.7083 10.0001 17.7083C8.01823 17.7083 6.59471 17.707 5.5114 17.5613C4.44606 17.4181 3.80379 17.1457 3.32908 16.671C2.85437 16.1963 2.58195 15.554 2.43872 14.4887C2.29308 13.4054 2.29175 11.9818 2.29175 9.99999C2.29175 8.01814 2.29308 6.59462 2.43872 5.5113C2.58195 4.44597 2.85437 3.8037 3.32908 3.32899C3.80379 2.85427 4.44606 2.58186 5.5114 2.43863C6.59471 2.29298 8.01823 2.29166 10.0001 2.29166H11.2501C11.5953 2.29166 11.8751 2.01183 11.8751 1.66666C11.8751 1.32148 11.5953 1.04166 11.2501 1.04166H9.95227Z" fill="#2B3344"/>
<path fill-rule="evenodd" clip-rule="evenodd" d="M15.8334 1.04166C14.1075 1.04166 12.7084 2.44077 12.7084 4.16666C12.7084 5.89255 14.1075 7.29166 15.8334 7.29166C17.5593 7.29166 18.9584 5.89255 18.9584 4.16666C18.9584 2.44077 17.5593 1.04166 15.8334 1.04166ZM13.9584 4.16666C13.9584 3.13112 14.7979 2.29166 15.8334 2.29166C16.8689 2.29166 17.7084 3.13112 17.7084 4.16666C17.7084 5.20219 16.8689 6.04166 15.8334 6.04166C14.7979 6.04166 13.9584 5.20219 13.9584 4.16666Z" fill="#2B3344"/>
<path d="M5.20842 11.6667C5.20842 11.3215 5.48824 11.0417 5.83342 11.0417H13.3334C13.6786 11.0417 13.9584 11.3215 13.9584 11.6667C13.9584 12.0118 13.6786 12.2917 13.3334 12.2917H5.83342C5.48824 12.2917 5.20842 12.0118 5.20842 11.6667Z" fill="#2B3344"/>
<path d="M5.83342 13.9583C5.48824 13.9583 5.20842 14.2381 5.20842 14.5833C5.20842 14.9285 5.48824 15.2083 5.83342 15.2083H10.8334C11.1786 15.2083 11.4584 14.9285 11.4584 14.5833C11.4584 14.2381 11.1786 13.9583 10.8334 13.9583H5.83342Z" fill="#2B3344"/>
</svg>
