<svg width="14" height="14" viewBox="0 0 14 14" fill="none" xmlns="http://www.w3.org/2000/svg">
<g clip-path="url(#clip0_2963_483)">
<path d="M9.33723 9.24998C10.827 6.91228 10.6397 7.20393 10.6827 7.14298C11.225 6.37796 11.5117 5.47755 11.5117 4.53906C11.5117 2.05023 9.49208 0 7 0C4.51604 0 2.48828 2.04619 2.48828 4.53906C2.48828 5.47695 2.78097 6.40093 3.34113 7.17626L4.66271 9.25001C3.24972 9.46714 0.847656 10.1142 0.847656 11.5391C0.847656 12.0585 1.18666 12.7987 2.8017 13.3754C3.92941 13.7782 5.42038 14 7 14C9.95381 14 13.1523 13.1668 13.1523 11.5391C13.1523 10.114 10.7531 9.46758 9.33723 9.24998ZM4.02634 6.72506C4.02183 6.718 4.01712 6.71111 4.0122 6.70433C3.54607 6.06307 3.30859 5.30307 3.30859 4.53906C3.30859 2.48779 4.96032 0.820312 7 0.820312C9.03544 0.820312 10.6914 2.48853 10.6914 4.53906C10.6914 5.3043 10.4584 6.03851 10.0175 6.66288C9.97798 6.715 10.1841 6.39475 7 11.3911L4.02634 6.72506ZM7 13.1797C3.7736 13.1797 1.66797 12.2313 1.66797 11.5391C1.66797 11.0738 2.74991 10.3087 5.14741 10.0105L6.6541 12.3747C6.72941 12.4929 6.85984 12.5645 6.99997 12.5645C7.14011 12.5645 7.27057 12.4929 7.34584 12.3747L8.85251 10.0105C11.2501 10.3087 12.332 11.0738 12.332 11.5391C12.332 12.2254 10.2453 13.1797 7 13.1797Z" fill="#6E6A7C"/>
<path d="M7 2.48828C5.8692 2.48828 4.94922 3.40826 4.94922 4.53906C4.94922 5.66986 5.8692 6.58984 7 6.58984C8.1308 6.58984 9.05078 5.66986 9.05078 4.53906C9.05078 3.40826 8.1308 2.48828 7 2.48828ZM7 5.76953C6.32152 5.76953 5.76953 5.21754 5.76953 4.53906C5.76953 3.86058 6.32152 3.30859 7 3.30859C7.67848 3.30859 8.23047 3.86058 8.23047 4.53906C8.23047 5.21754 7.67848 5.76953 7 5.76953Z" fill="#6E6A7C"/>
</g>
<defs>
<clipPath id="clip0_2963_483">
<rect width="14" height="14" fill="white"/>
</clipPath>
</defs>
</svg>
