<?xml version="1.0" encoding="UTF-8"?>
<svg version="1.1" xmlns="http://www.w3.org/2000/svg" width="512" height="512">
<path d="M0 0 C1.37738342 0.00081573 1.37738342 0.00081573 2.78259277 0.00164795 C52.7727571 0.13717848 102.72198065 16.07191285 140.6875 49.375 C141.54730469 50.12523437 142.40710938 50.87546875 143.29296875 51.6484375 C145.78774505 53.86014539 148.24325494 56.10769524 150.6875 58.375 C151.65042969 59.23931641 151.65042969 59.23931641 152.6328125 60.12109375 C173.03998465 79.29017387 186.44120091 105.66214231 193.6875 132.375 C194.20183594 134.25251953 194.20183594 134.25251953 194.7265625 136.16796875 C199.40518808 157.26550931 198.737052 182.69879146 192.6875 203.375 C192.36604004 204.50881104 192.36604004 204.50881104 192.03808594 205.66552734 C186.02778893 226.40411404 176.31796861 245.03894995 162.0859375 261.32421875 C160.31190956 263.51209555 160.31190956 263.51209555 160.6875 267.375 C162.35284674 269.67527065 162.35284674 269.67527065 164.625 271.9375 C167.95675075 275.48823907 171.13566196 279.08038656 174.1875 282.875 C177.11382913 286.49346958 180.11347536 289.99969684 183.25 293.4375 C197.07190673 308.61973499 197.07190673 308.61973499 196.96875 319.38671875 C196.5929694 323.37938764 195.43585565 325.47808459 192.6875 328.375 C188.461029 331.59843237 184.72886527 331.78956229 179.5925293 331.71557617 C178.39174492 331.71623329 178.39174492 331.71623329 177.16670227 331.71690369 C174.53145614 331.71482046 171.89685318 331.69151178 169.26171875 331.66796875 C167.4304082 331.66237113 165.59909314 331.65810181 163.76777649 331.65510559 C158.95575483 331.64366989 154.14400629 331.61421367 149.33209229 331.58099365 C144.41869806 331.55026529 139.50525956 331.53659434 134.59179688 331.52148438 C124.95691148 331.48934276 115.32222848 331.4381618 105.6875 331.375 C105.69371872 331.93536453 105.69993744 332.49572906 105.7063446 333.07307434 C105.7313225 335.65937664 105.74656975 338.24565342 105.76171875 340.83203125 C105.7716687 341.71314575 105.78161865 342.59426025 105.79187012 343.5020752 C105.92948988 374.94456832 91.52887671 406.82835493 72.6875 431.375 C72.0275 432.25929688 71.3675 433.14359375 70.6875 434.0546875 C35.69966308 479.01952479 -18.71280453 504.19616574 -74.25514632 511.63518685 C-79.82213583 512.30727804 -85.29227744 512.52339348 -90.89628601 512.52217102 C-91.81854172 512.52584771 -92.74079743 512.5295244 -93.69100028 512.5333125 C-96.75844285 512.54426071 -99.82585145 512.54817784 -102.89331055 512.55200195 C-105.10162461 512.55827283 -107.30993763 512.56492018 -109.51824951 512.57191467 C-116.7452319 512.59286646 -123.97221431 512.60330219 -131.19921875 512.61328125 C-133.69071781 512.6173308 -136.18221676 512.62144778 -138.67371559 512.62563133 C-149.70050259 512.6435668 -160.72728506 512.65795297 -171.75408404 512.66580774 C-173.76680148 512.66724612 -175.77951891 512.66869751 -177.79223633 512.67016602 C-178.45846128 512.67064976 -179.12468622 512.6711335 -179.8110998 512.6716319 C-190.6217925 512.67994599 -201.43237507 512.70531577 -212.2430196 512.73774669 C-223.35587393 512.77081168 -234.4686823 512.78849493 -245.58158714 512.79202431 C-251.81584005 512.79437704 -258.04991809 512.80336827 -264.28412437 512.82848549 C-270.14222502 512.85171003 -276.00003486 512.85602202 -281.85816956 512.84572411 C-284.00843077 512.84522743 -286.15870606 512.8515865 -288.30892372 512.86528015 C-291.24285505 512.88292137 -294.17573361 512.87593126 -297.10966492 512.86274719 C-298.38743578 512.87920106 -298.38743578 512.87920106 -299.69102019 512.89598733 C-305.03618544 512.83794049 -308.06668821 511.9168122 -312.3125 508.375 C-315.80675628 503.84211128 -315.94453815 499.93548936 -315.78125 494.36328125 C-315.01615747 489.48581639 -312.65449456 486.86140174 -309.3125 483.375 C-307.8737778 481.77192939 -306.43635612 480.16769096 -305 478.5625 C-304.2265625 477.716875 -303.453125 476.87125 -302.65625 476 C-300.34884839 473.4157102 -298.16782957 470.7644325 -296 468.0625 C-292.04641518 463.17089418 -287.86679651 458.54557099 -283.5612793 453.96557617 C-280.3430518 450.53521732 -277.29346197 447.01416708 -274.3125 443.375 C-275.82554841 439.93911923 -277.85616701 437.44978294 -280.3125 434.625 C-300.79705941 409.86597394 -315.31214813 376.00443911 -315.515625 343.6328125 C-315.52132507 342.90617401 -315.52702515 342.17953552 -315.53289795 341.43087769 C-315.54229519 339.8963158 -315.54886079 338.36173421 -315.55273438 336.82714844 C-315.5623295 334.54062941 -315.59335565 332.25505456 -315.625 329.96875 C-315.72582699 316.06897547 -313.75995102 302.74276359 -309.625 289.4375 C-309.36936279 288.60814941 -309.11372559 287.77879883 -308.8503418 286.92431641 C-301.66462603 264.38836968 -289.71512758 245.19075639 -274.3125 227.375 C-273.47332031 226.39402344 -272.63414062 225.41304687 -271.76953125 224.40234375 C-267.27667316 219.27538176 -262.54823339 214.72882795 -257.3125 210.375 C-256.44109375 209.61574219 -255.5696875 208.85648438 -254.671875 208.07421875 C-239.69816424 195.20243263 -222.7846631 185.29278031 -205 176.8125 C-203.91452881 176.29212158 -203.91452881 176.29212158 -202.80712891 175.76123047 C-199.80790632 174.3643617 -197.66120648 173.375 -194.3125 173.375 C-194.3439209 172.44941284 -194.3439209 172.44941284 -194.37597656 171.50512695 C-195.57111023 130.57936303 -181.74146483 93.91821454 -153.70703125 63.86328125 C-152.91683594 63.04214844 -152.12664062 62.22101562 -151.3125 61.375 C-150.83731934 60.87403809 -150.36213867 60.37307617 -149.87255859 59.85693359 C-111.21365349 19.24740572 -55.31743375 -0.12388422 0 0 Z M-124.93164062 79.04541016 C-126.10820007 80.17828546 -127.30949623 81.28537777 -128.515625 82.38671875 C-147.84136883 100.4947836 -161.98895731 129.06913966 -163.4921875 155.5390625 C-163.49863831 157.8290989 -163.42844259 160.0891889 -163.3125 162.375 C-156.52875815 161.67578379 -149.86268849 160.67088505 -143.15039062 159.48046875 C-134.28820637 157.95064095 -125.5103587 157.21910073 -116.51953125 157.171875 C-115.61908081 157.16481537 -114.71863037 157.15775574 -113.79089355 157.15048218 C-76.03330705 156.92162122 -76.03330705 156.92162122 -59.3125 160.375 C-58.32942871 160.57367676 -57.34635742 160.77235352 -56.33349609 160.97705078 C-2.23026731 172.22924122 48.75929498 200.51725673 79.6875 247.375 C88.46891112 261.29212249 94.99892342 276.08763047 99.64453125 291.8515625 C100.59043734 295.04709542 101.6336419 298.2134257 102.6875 301.375 C117.5375 301.375 132.3875 301.375 147.6875 301.375 C144.98080766 297.3149615 142.73801767 294.16143881 139.5 290.6875 C122.32005621 271.83215673 122.32005621 271.83215673 122.5625 262.9375 C123.4828865 257.28234171 126.79651089 254.34607808 130.6875 250.375 C152.31279943 227.19083383 166.15071807 198.7323171 166 166.625 C165.99508545 165.3872583 165.9901709 164.1495166 165.98510742 162.87426758 C165.8712531 153.99187856 165.19740018 145.93518801 162.6875 137.375 C162.37039063 136.20066406 162.05328125 135.02632813 161.7265625 133.81640625 C155.50212463 112.95791764 143.45763159 96.06651976 128.6875 80.375 C128.13964844 79.77429688 127.59179688 79.17359375 127.02734375 78.5546875 C103.35452668 53.54409453 67.88173856 39.52088003 34.6875 33.375 C33.53507813 33.16101562 32.38265625 32.94703125 31.1953125 32.7265625 C-24.45351779 23.69181123 -84.20888693 39.57384068 -124.93164062 79.04541016 Z M-204.3125 211.375 C-205.22273926 211.85622314 -205.22273926 211.85622314 -206.15136719 212.34716797 C-219.27449905 219.31949572 -230.54665777 228.16042078 -241.3125 238.375 C-241.8178125 238.84776367 -242.323125 239.32052734 -242.84375 239.80761719 C-264.9760443 260.62314638 -282.7889916 290.61352482 -284.48950195 321.6003418 C-284.93409805 345.26625872 -284.93409805 345.26625872 -280.3125 368.375 C-280.07644043 369.14666504 -279.84038086 369.91833008 -279.59716797 370.71337891 C-272.44865715 393.36646124 -260.063352 411.81966197 -243.55151367 428.67089844 C-239.61627825 432.75206273 -237.59059573 435.91848773 -236.9375 441.6875 C-237.88959615 451.04977883 -244.02246751 456.56349864 -250.19921875 463.05078125 C-254.51446069 467.60171299 -258.41112099 472.4668135 -262.3125 477.375 C-263.64553393 479.04190615 -264.97882856 480.70860388 -266.3125 482.375 C-244.18789276 482.44544253 -222.06330431 482.49815929 -199.93860722 482.53043652 C-189.66305326 482.54582944 -179.38756944 482.56677189 -169.11206055 482.60131836 C-160.14384436 482.63145501 -151.17567904 482.65062984 -142.20741361 482.65726548 C-137.46976027 482.66113717 -132.73225228 482.67007286 -127.99464607 482.69219017 C-103.58897818 482.80168216 -79.31110663 482.78607879 -55.5 476.625 C-54.47849854 476.36895996 -53.45699707 476.11291992 -52.40454102 475.84912109 C-36.52533422 471.75118159 -21.72074149 466.1906111 -7.3125 458.375 C-6.14460938 457.76011719 -4.97671875 457.14523437 -3.7734375 456.51171875 C10.52410712 448.7174591 22.99020527 438.63972913 34.6875 427.375 C35.32816406 426.78589844 35.96882813 426.19679688 36.62890625 425.58984375 C58.89734701 404.56140897 74.04844989 371.85199527 75.0234375 341.30859375 C75.19694699 326.89586608 74.9595159 313.2156768 70.6875 299.375 C70.47851074 298.69373047 70.26952148 298.01246094 70.05419922 297.31054688 C65.04939369 281.61007828 57.15303818 267.08434956 46.6875 254.375 C46.22972168 253.81184082 45.77194336 253.24868164 45.30029297 252.66845703 C14.81109229 215.30873772 -31.46685163 192.9167137 -79.15429688 187.97705078 C-122.82933598 184.13256894 -165.44037395 190.43682871 -204.3125 211.375 Z " fill="#000000" transform="translate(315.3125,-0.375)"/>
<path d="M0 0 C3.58598889 2.54054385 6.15992797 5.04327701 8.4921875 8.765625 C8.90210938 9.38695312 9.31203125 10.00828125 9.734375 10.6484375 C13.58244889 17.62804738 13.74273274 26.02607545 12.4921875 33.765625 C10.09120579 41.34186763 6.27912589 47.51322792 -0.5078125 51.765625 C-1.12914062 52.17554688 -1.75046875 52.58546875 -2.390625 53.0078125 C-9.37023488 56.85588639 -17.76826295 57.01617024 -25.5078125 55.765625 C-33.08405513 53.36464329 -39.25541542 49.55256339 -43.5078125 42.765625 C-43.91773438 42.14429688 -44.32765625 41.52296875 -44.75 40.8828125 C-48.59807389 33.90320262 -48.75835774 25.50517455 -47.5078125 17.765625 C-45.10683079 10.18938237 -41.29475089 4.01802208 -34.5078125 -0.234375 C-33.88648438 -0.64429688 -33.26515625 -1.05421875 -32.625 -1.4765625 C-22.455808 -7.08315125 -9.72162164 -5.63801363 0 0 Z " fill="#000000" transform="translate(318.5078125,305.234375)"/>
<path d="M0 0 C3.58598889 2.54054385 6.15992797 5.04327701 8.4921875 8.765625 C8.90210938 9.38695312 9.31203125 10.00828125 9.734375 10.6484375 C13.58244889 17.62804738 13.74273274 26.02607545 12.4921875 33.765625 C10.09120579 41.34186763 6.27912589 47.51322792 -0.5078125 51.765625 C-1.12914062 52.17554688 -1.75046875 52.58546875 -2.390625 53.0078125 C-9.37023488 56.85588639 -17.76826295 57.01617024 -25.5078125 55.765625 C-33.08405513 53.36464329 -39.25541542 49.55256339 -43.5078125 42.765625 C-43.91773438 42.14429688 -44.32765625 41.52296875 -44.75 40.8828125 C-48.59807389 33.90320262 -48.75835774 25.50517455 -47.5078125 17.765625 C-45.10683079 10.18938237 -41.29475089 4.01802208 -34.5078125 -0.234375 C-33.88648438 -0.64429688 -33.26515625 -1.05421875 -32.625 -1.4765625 C-22.455808 -7.08315125 -9.72162164 -5.63801363 0 0 Z " fill="#000000" transform="translate(228.5078125,305.234375)"/>
<path d="M0 0 C3.58598889 2.54054385 6.15992797 5.04327701 8.4921875 8.765625 C8.90210938 9.38695312 9.31203125 10.00828125 9.734375 10.6484375 C13.58244889 17.62804738 13.74273274 26.02607545 12.4921875 33.765625 C10.09120579 41.34186763 6.27912589 47.51322792 -0.5078125 51.765625 C-1.12914062 52.17554688 -1.75046875 52.58546875 -2.390625 53.0078125 C-9.37023488 56.85588639 -17.76826295 57.01617024 -25.5078125 55.765625 C-33.08405513 53.36464329 -39.25541542 49.55256339 -43.5078125 42.765625 C-43.91773437 42.14429688 -44.32765625 41.52296875 -44.75 40.8828125 C-48.59807389 33.90320262 -48.75835774 25.50517455 -47.5078125 17.765625 C-45.10683079 10.18938237 -41.29475089 4.01802208 -34.5078125 -0.234375 C-33.88648437 -0.64429688 -33.26515625 -1.05421875 -32.625 -1.4765625 C-22.455808 -7.08315125 -9.72162164 -5.63801363 0 0 Z " fill="#000000" transform="translate(138.5078125,305.234375)"/>
</svg>
