<svg width="18" height="18" viewBox="0 0 18 18" fill="none" xmlns="http://www.w3.org/2000/svg">
<path d="M11.9999 6.75C11.9999 7.16421 11.6641 7.5 11.2499 7.5C10.8357 7.5 10.4999 7.16421 10.4999 6.75C10.4999 6.33579 10.8357 6 11.2499 6C11.6641 6 11.9999 6.33579 11.9999 6.75Z" fill="#2B3344"/>
<path d="M7.49993 6.75C7.49993 7.16421 7.16414 7.5 6.74993 7.5C6.33571 7.5 5.99993 7.16421 5.99993 6.75C5.99993 6.33579 6.33571 6 6.74993 6C7.16414 6 7.49993 6.33579 7.49993 6.75Z" fill="#2B3344"/>
<path fill-rule="evenodd" clip-rule="evenodd" d="M8.99993 2.0625C8.06795 2.0625 7.31243 2.81802 7.31243 3.75V3.94086C7.62555 3.93749 7.96358 3.9375 8.32886 3.9375H9.671C10.0363 3.9375 10.3743 3.93749 10.6874 3.94086V3.75C10.6874 2.81802 9.93191 2.0625 8.99993 2.0625ZM11.8124 3.9802V3.75C11.8124 2.1967 10.5532 0.9375 8.99993 0.9375C7.44662 0.9375 6.18743 2.1967 6.18743 3.75V3.9802C6.08618 3.98759 5.98847 3.99626 5.89416 4.00642C5.23539 4.07742 4.68448 4.22616 4.19526 4.56148C4.027 4.67681 3.86896 4.80637 3.72287 4.94875C3.29813 5.36271 3.04423 5.87374 2.84541 6.50579C2.65238 7.11944 2.49638 7.8995 2.30035 8.87969L2.28604 8.95123C2.00356 10.3636 1.78096 11.4765 1.71703 12.363C1.65171 13.2687 1.74299 14.0306 2.17202 14.691C2.31517 14.9113 2.48224 15.1151 2.67021 15.2987C3.23356 15.8488 3.96282 16.0878 4.86376 16.2014C5.74553 16.3125 6.88051 16.3125 8.32083 16.3125H9.67902C11.1193 16.3125 12.2543 16.3125 13.1361 16.2014C14.037 16.0878 14.7663 15.8488 15.3296 15.2987C15.5176 15.1151 15.6847 14.9113 15.8278 14.691C16.2569 14.0306 16.3481 13.2687 16.2828 12.363C16.2189 11.4765 15.9963 10.3636 15.7138 8.95129L15.6995 8.87972C15.5035 7.89951 15.3475 7.11944 15.1544 6.50579C14.9556 5.87374 14.7017 5.36271 14.277 4.94875C14.1309 4.80637 13.9728 4.6768 13.8046 4.56148C13.3154 4.22616 12.7645 4.07742 12.1057 4.00642C12.0114 3.99626 11.9137 3.98759 11.8124 3.9802ZM6.01471 5.12494C5.45468 5.1853 5.1087 5.29929 4.83129 5.48943C4.71616 5.56834 4.60803 5.65699 4.50807 5.7544C4.26722 5.98914 4.08759 6.30605 3.91857 6.84337C3.74585 7.39246 3.60098 8.11294 3.39713 9.13216C3.10498 10.5929 2.89735 11.6365 2.83912 12.4439C2.78168 13.2403 2.87867 13.7137 3.11538 14.078C3.21332 14.2288 3.32764 14.3682 3.45625 14.4938C3.76708 14.7974 4.21222 14.9853 5.00447 15.0852C5.80764 15.1864 6.87161 15.1875 8.36132 15.1875H9.63853C11.1282 15.1875 12.1922 15.1864 12.9954 15.0852C13.7876 14.9853 14.2328 14.7974 14.5436 14.4938C14.6722 14.3682 14.7865 14.2288 14.8845 14.078C15.1212 13.7137 15.2182 13.2403 15.1607 12.4439C15.1025 11.6365 14.8949 10.5929 14.6027 9.13216C14.3989 8.11294 14.254 7.39246 14.0813 6.84337C13.9123 6.30605 13.7326 5.98914 13.4918 5.7544C13.3918 5.65699 13.2837 5.56834 13.1686 5.48943C12.8912 5.29929 12.5452 5.1853 11.9851 5.12494C11.4128 5.06326 10.6779 5.0625 9.63853 5.0625H8.36132C7.32191 5.0625 6.58701 5.06326 6.01471 5.12494Z" fill="#2B3344"/>
</svg>
