<svg width="14" height="14" viewBox="0 0 14 14" fill="none" xmlns="http://www.w3.org/2000/svg">
<g clip-path="url(#clip0_984_375)">
<path d="M11.064 8.6725C10.7774 8.37406 10.4317 8.2145 10.0653 8.2145C9.70184 8.2145 9.35317 8.37111 9.05474 8.66954L8.12102 9.6003C8.04419 9.55893 7.96737 9.52052 7.8935 9.48211C7.78713 9.42892 7.68666 9.37869 7.60098 9.32551C6.72636 8.77 5.93152 8.04608 5.16918 7.10941C4.79983 6.64255 4.55163 6.24956 4.37138 5.85067C4.61368 5.62906 4.83824 5.39858 5.0569 5.17697C5.13963 5.09424 5.22236 5.00855 5.3051 4.92581C5.92561 4.30531 5.92561 3.5016 5.3051 2.8811L4.49844 2.07444C4.40684 1.98284 4.31229 1.88828 4.22364 1.79373C4.04636 1.61053 3.8602 1.42143 3.66814 1.24414C3.38153 0.960478 3.03877 0.809784 2.67829 0.809784C2.3178 0.809784 1.96913 0.960478 1.67366 1.24414C1.6707 1.24709 1.6707 1.24709 1.66775 1.25005L0.663115 2.26354C0.284901 2.64176 0.0692009 3.10271 0.0219242 3.63752C-0.0489909 4.50032 0.205122 5.30403 0.400138 5.82998C0.878815 7.12123 1.59388 8.31792 2.66056 9.6003C3.95476 11.1457 5.51193 12.366 7.29072 13.2258C7.97032 13.5479 8.87745 13.9291 9.89094 13.9941C9.95299 13.997 10.018 14 10.0771 14C10.7597 14 11.3329 13.7547 11.782 13.2672C11.785 13.2613 11.7909 13.2583 11.7938 13.2524C11.9475 13.0663 12.1248 12.8979 12.3109 12.7176C12.438 12.5965 12.568 12.4694 12.695 12.3364C12.9876 12.0321 13.1412 11.6775 13.1412 11.3141C13.1412 10.9477 12.9846 10.5961 12.6862 10.3006L11.064 8.6725ZM12.1218 11.7839C12.1189 11.7839 12.1189 11.7868 12.1218 11.7839C12.0066 11.908 11.8884 12.0203 11.7613 12.1444C11.5693 12.3276 11.3742 12.5196 11.1911 12.7353C10.8926 13.0545 10.541 13.2052 10.08 13.2052C10.0357 13.2052 9.98845 13.2052 9.94413 13.2022C9.06655 13.1461 8.25103 12.8033 7.63939 12.5108C5.96697 11.7012 4.49844 10.5517 3.27811 9.09503C2.27052 7.88061 1.59683 6.75779 1.15066 5.55223C0.87586 4.81649 0.775397 4.24326 0.819719 3.70253C0.849267 3.35682 0.982233 3.0702 1.22748 2.82495L2.23507 1.81737C2.37985 1.68145 2.5335 1.60758 2.6842 1.60758C2.87035 1.60758 3.02104 1.71986 3.1156 1.81441C3.11855 1.81737 3.1215 1.82032 3.12446 1.82328C3.3047 1.9917 3.47608 2.16604 3.65632 2.35219C3.74792 2.44674 3.84248 2.54129 3.93703 2.6388L4.74369 3.44546C5.0569 3.75867 5.0569 4.04824 4.74369 4.36145C4.658 4.44714 4.57526 4.53283 4.48958 4.61556C4.24137 4.86967 4.00499 5.10606 3.74792 5.33653C3.74201 5.34244 3.7361 5.3454 3.73315 5.35131C3.47904 5.60542 3.52631 5.85362 3.5795 6.02204C3.58245 6.03091 3.58541 6.03977 3.58836 6.04864C3.79815 6.55686 4.09363 7.03554 4.54276 7.60581L4.54572 7.60877C5.36124 8.6134 6.22109 9.39642 7.16958 9.99624C7.29072 10.0731 7.41482 10.1351 7.53301 10.1942C7.63939 10.2474 7.73985 10.2976 7.82554 10.3508C7.83736 10.3567 7.84918 10.3656 7.861 10.3715C7.96146 10.4217 8.05601 10.4454 8.15352 10.4454C8.39877 10.4454 8.55242 10.2917 8.60265 10.2415L9.61319 9.23095C9.71365 9.13049 9.87321 9.00934 10.0594 9.00934C10.2426 9.00934 10.3933 9.12458 10.4849 9.22504C10.4878 9.228 10.4878 9.228 10.4908 9.23095L12.1189 10.859C12.4232 11.1604 12.4232 11.4707 12.1218 11.7839Z" fill="#6E6A7C"/>
<path d="M7.56565 3.33023C8.3398 3.46024 9.04305 3.82663 9.60446 4.38804C10.1659 4.94945 10.5293 5.6527 10.6623 6.42685C10.6948 6.62187 10.8632 6.75779 11.0553 6.75779C11.0789 6.75779 11.0996 6.75483 11.1232 6.75188C11.3419 6.71642 11.4867 6.50959 11.4512 6.29093C11.2916 5.35426 10.8484 4.50033 10.1718 3.82368C9.49513 3.14703 8.64119 2.70381 7.70452 2.54425C7.48587 2.50879 7.28199 2.65358 7.24358 2.86928C7.20516 3.08498 7.34699 3.29477 7.56565 3.33023Z" fill="#6E6A7C"/>
<path d="M13.9835 6.1757C13.7206 4.63329 12.9937 3.22976 11.8768 2.11285C10.7598 0.995938 9.35632 0.269058 7.81392 0.00608141C7.59822 -0.0323309 7.39434 0.115409 7.35592 0.331109C7.32047 0.549764 7.46525 0.753645 7.68391 0.792057C9.06084 1.02549 10.3166 1.6785 11.3153 2.67426C12.3141 3.67298 12.9641 4.92877 13.1976 6.30571C13.2301 6.50072 13.3985 6.63664 13.5905 6.63664C13.6142 6.63664 13.6349 6.63369 13.6585 6.63073C13.8742 6.59823 14.0219 6.3914 13.9835 6.1757Z" fill="#6E6A7C"/>
</g>
<defs>
<clipPath id="clip0_984_375">
<rect width="14" height="14" fill="white"/>
</clipPath>
</defs>
</svg>
