<svg width="18" height="18" viewBox="0 0 18 18" fill="none" xmlns="http://www.w3.org/2000/svg">
<g clip-path="url(#clip0_369_3032)">
<path fill-rule="evenodd" clip-rule="evenodd" d="M8.95697 0.9375H9.04303C10.7743 0.937491 12.1311 0.937483 13.1897 1.07981C14.2733 1.22549 15.1283 1.5295 15.7994 2.2006C16.4705 2.87171 16.7745 3.72673 16.9202 4.81028C17.0625 5.8689 17.0625 7.22567 17.0625 8.95697V9.04303C17.0625 9.27884 17.0625 9.5077 17.0621 9.72981C17.0624 9.73651 17.0625 9.74324 17.0625 9.75C17.0625 9.75742 17.0624 9.76481 17.0621 9.77216C17.0595 11.1612 17.0419 12.2845 16.9202 13.1897C16.7745 14.2733 16.4705 15.1283 15.7994 15.7994C15.1283 16.4705 14.2733 16.7745 13.1897 16.9202C12.1311 17.0625 10.7743 17.0625 9.04303 17.0625H8.95697C7.22567 17.0625 5.8689 17.0625 4.81028 16.9202C3.72673 16.7745 2.87171 16.4705 2.2006 15.7994C1.5295 15.1283 1.22549 14.2733 1.07981 13.1897C0.958103 12.2845 0.940476 11.1612 0.937929 9.77216C0.937644 9.76481 0.9375 9.75742 0.9375 9.75C0.9375 9.74324 0.93762 9.73651 0.937856 9.72981C0.937498 9.5077 0.937499 9.27884 0.9375 9.04303V8.95697C0.937491 7.22567 0.937483 5.86889 1.07981 4.81028C1.22549 3.72673 1.5295 2.87171 2.2006 2.2006C2.87171 1.5295 3.72673 1.22549 4.81028 1.07981C5.86889 0.937483 7.22567 0.937491 8.95697 0.9375ZM2.06513 10.3125C2.0722 11.4395 2.09834 12.3225 2.19478 13.0398C2.32369 13.9986 2.56886 14.5767 2.9961 15.0039C3.42334 15.4311 4.00138 15.6763 4.96018 15.8052C5.93517 15.9363 7.21633 15.9375 9 15.9375C10.7837 15.9375 12.0648 15.9363 13.0398 15.8052C13.9986 15.6763 14.5767 15.4311 15.0039 15.0039C15.4311 14.5767 15.6763 13.9986 15.8052 13.0398C15.9017 12.3225 15.9278 11.4395 15.9349 10.3125H14.1298C13.3994 10.3125 13.2085 10.3245 13.0482 10.3983C12.8878 10.472 12.7544 10.6092 12.2791 11.1637L11.825 11.6934C11.8029 11.7192 11.7811 11.7447 11.7596 11.77C11.383 12.2103 11.0847 12.559 10.6719 12.7488C10.2591 12.9387 9.80029 12.9382 9.2209 12.9376C9.18773 12.9375 9.15417 12.9375 9.1202 12.9375H8.8798C8.84583 12.9375 8.81227 12.9375 8.7791 12.9376C8.19971 12.9382 7.74086 12.9387 7.32807 12.7488C6.91529 12.559 6.61704 12.2102 6.24044 11.77C6.21888 11.7447 6.19706 11.7192 6.17495 11.6934L5.72088 11.1637C5.24557 10.6092 5.11216 10.472 4.95184 10.3983C4.79151 10.3245 4.60055 10.3125 3.8702 10.3125H2.06513ZM15.9375 9.1875H14.1298C14.0958 9.1875 14.0623 9.18746 14.0291 9.18743C13.4497 9.18682 12.9909 9.18634 12.5781 9.37619C12.1653 9.56604 11.867 9.91475 11.4904 10.355C11.4689 10.3803 11.4471 10.4058 11.425 10.4316L10.9709 10.9613C10.4956 11.5158 10.3622 11.653 10.2018 11.7267C10.0415 11.8005 9.85055 11.8125 9.1202 11.8125H8.8798C8.14945 11.8125 7.95849 11.8005 7.79816 11.7267C7.63784 11.653 7.50443 11.5158 7.02912 10.9613L6.57505 10.4316C6.55294 10.4058 6.53112 10.3803 6.50956 10.355C6.13297 9.91475 5.83471 9.56605 5.42193 9.37619C5.00914 9.18634 4.55029 9.18682 3.9709 9.18743C3.93773 9.18746 3.90417 9.1875 3.8702 9.1875H2.06251C2.0625 9.12562 2.0625 9.06313 2.0625 9C2.0625 7.21633 2.06369 5.93517 2.19478 4.96018C2.32369 4.00138 2.56886 3.42334 2.9961 2.9961C3.42334 2.56886 4.00138 2.32369 4.96018 2.19478C5.93517 2.06369 7.21633 2.0625 9 2.0625C10.7837 2.0625 12.0648 2.06369 13.0398 2.19478C13.9986 2.32369 14.5767 2.56886 15.0039 2.9961C15.4311 3.42334 15.6763 4.00138 15.8052 4.96018C15.9363 5.93517 15.9375 7.21633 15.9375 9C15.9375 9.06313 15.9375 9.12562 15.9375 9.1875Z" fill="#2B3344"/>
</g>
<defs>
<clipPath id="clip0_369_3032">
<rect width="18" height="18" fill="white"/>
</clipPath>
</defs>
</svg>
