<svg width="9" height="9" viewBox="0 0 9 9" fill="none" xmlns="http://www.w3.org/2000/svg">
<g clip-path="url(#clip0_2963_510)">
<path d="M7.5376 0.4125C7.4626 0.4125 7.3501 0.4875 7.3501 0.6V2.4375C7.3501 2.55 7.4251 2.625 7.5376 2.625C7.6126 2.625 7.7251 2.55 7.7251 2.4375V0.6C7.6876 0.4875 7.6126 0.4125 7.5376 0.4125Z" fill="#EBA801" stroke="#EBA801" stroke-width="0.2"/>
<path d="M8.4376 1.3125H6.6001C6.5251 1.3125 6.4126 1.3875 6.4126 1.5C6.4126 1.6125 6.4876 1.6875 6.6001 1.6875H8.4376C8.5126 1.6875 8.6251 1.6125 8.6251 1.5C8.6251 1.425 8.5126 1.3125 8.4376 1.3125Z" fill="#EBA801" stroke="#EBA801" stroke-width="0.2"/>
<path d="M5.5874 1.3125H3.2999C1.7624 1.3125 0.524902 2.55 0.524902 4.0875V5.7375C0.524902 7.275 1.7624 8.5125 3.2999 8.5125H4.9124C6.4499 8.5125 7.6874 7.275 7.6874 5.7375V3.45C7.6874 3.3375 7.6124 3.3 7.4999 3.3C7.4249 3.3 7.3124 3.375 7.3124 3.45V5.7375C7.3124 7.0875 6.2249 8.175 4.8749 8.175H3.2999C1.9499 8.175 0.862402 7.0875 0.862402 5.7375V4.125C0.862402 2.775 1.9499 1.6875 3.2999 1.6875H5.6249C5.6999 1.6875 5.8124 1.6125 5.8124 1.5C5.7749 1.425 5.6999 1.3125 5.5874 1.3125Z" fill="#EBA801" stroke="#EBA801" stroke-width="0.3"/>
</g>
<defs>
<clipPath id="clip0_2963_510">
<rect width="9" height="9" fill="white" transform="matrix(1 0 0 -1 0 9)"/>
</clipPath>
</defs>
</svg>
