<svg width="20" height="20" viewBox="0 0 20 20" fill="none" xmlns="http://www.w3.org/2000/svg">
<path fill-rule="evenodd" clip-rule="evenodd" d="M6.05232 2.71559C6.15264 1.77461 6.94906 1.04166 7.91667 1.04166H12.0833C13.0509 1.04166 13.8474 1.77461 13.9477 2.71559C14.5836 2.72854 15.1335 2.76143 15.603 2.84767C16.2347 2.9637 16.7723 3.18473 17.2097 3.62217C17.7113 4.12377 17.9271 4.75533 18.0279 5.50542C18.125 6.2279 18.125 7.1465 18.125 8.28616V13.3776C18.125 14.5173 18.125 15.4359 18.0279 16.1583C17.9271 16.9084 17.7113 17.54 17.2097 18.0416C16.7081 18.5432 16.0765 18.7589 15.3265 18.8598C14.604 18.9569 13.6854 18.9569 12.5457 18.9569H7.45428C6.31462 18.9569 5.39601 18.9569 4.67354 18.8598C3.92345 18.7589 3.29189 18.5432 2.79029 18.0416C2.2887 17.54 2.07295 16.9084 1.9721 16.1583C1.87497 15.4359 1.87498 14.5173 1.875 13.3776V8.28615C1.87498 7.1465 1.87497 6.2279 1.9721 5.50542C2.07295 4.75533 2.2887 4.12377 2.79029 3.62217C3.22773 3.18473 3.7653 2.9637 4.39696 2.84767C4.86648 2.76143 5.41636 2.72854 6.05232 2.71559ZM6.05397 3.96594C5.45557 3.97872 4.99443 4.00884 4.62279 4.0771C4.15045 4.16387 3.87705 4.30318 3.67418 4.50606C3.44354 4.73669 3.29317 5.0605 3.21096 5.67198C3.12633 6.30144 3.125 7.1357 3.125 8.33188V13.3319C3.125 14.5281 3.12633 15.3623 3.21096 15.9918C3.29317 16.6033 3.44354 16.9271 3.67418 17.1577C3.90481 17.3883 4.22862 17.5387 4.8401 17.6209C5.46956 17.7056 6.30382 17.7069 7.5 17.7069H12.5C13.6962 17.7069 14.5304 17.7056 15.1599 17.6209C15.7714 17.5387 16.0952 17.3883 16.3258 17.1577C16.5565 16.9271 16.7068 16.6033 16.789 15.9918C16.8737 15.3623 16.875 14.5281 16.875 13.3319V8.33188C16.875 7.1357 16.8737 6.30144 16.789 5.67198C16.7068 5.0605 16.5565 4.73669 16.3258 4.50606C16.1229 4.30318 15.8496 4.16387 15.3772 4.0771C15.0056 4.00884 14.5444 3.97872 13.946 3.96594C13.8389 4.89976 13.0458 5.625 12.0833 5.625H7.91667C6.95416 5.625 6.16105 4.89976 6.05397 3.96594ZM7.91667 2.29166C7.57149 2.29166 7.29167 2.57149 7.29167 2.91666V3.75C7.29167 4.09518 7.57149 4.375 7.91667 4.375H12.0833C12.4285 4.375 12.7083 4.09518 12.7083 3.75V2.91666C12.7083 2.57149 12.4285 2.29166 12.0833 2.29166H7.91667ZM12.9569 8.74022C13.1924 8.99256 13.1788 9.38805 12.9264 9.62357L9.35502 12.9569C9.11489 13.181 8.74225 13.181 8.50212 12.9569L7.07355 11.6236C6.82121 11.3881 6.80757 10.9926 7.04309 10.7402C7.27861 10.4879 7.67411 10.4742 7.92645 10.7098L8.92857 11.6451L12.0736 8.70976C12.3259 8.47423 12.7214 8.48787 12.9569 8.74022Z" fill="#2B3344"/>
</svg>
