<svg width="20" height="20" viewBox="0 0 20 20" fill="none" xmlns="http://www.w3.org/2000/svg">
<path d="M11.4584 8.33333C11.4584 8.67851 11.7382 8.95833 12.0834 8.95833H12.6579L10.9807 10.6355C10.8994 10.7168 10.7675 10.7168 10.6861 10.6355L9.36461 9.31398C8.7951 8.74447 7.87173 8.74447 7.30222 9.31398L5.39147 11.2247C5.1474 11.4688 5.1474 11.8645 5.39147 12.1086C5.63555 12.3527 6.03128 12.3527 6.27536 12.1086L8.1861 10.1979C8.26746 10.1165 8.39937 10.1165 8.48073 10.1979L9.80222 11.5194C10.3717 12.0889 11.2951 12.0889 11.8646 11.5194L13.5417 9.84222V10.4167C13.5417 10.7618 13.8216 11.0417 14.1667 11.0417C14.5119 11.0417 14.7917 10.7618 14.7917 10.4167V8.33333C14.7917 7.98816 14.5119 7.70833 14.1667 7.70833H12.0834C11.7382 7.70833 11.4584 7.98816 11.4584 8.33333Z" fill="#2B3344"/>
<path fill-rule="evenodd" clip-rule="evenodd" d="M9.95227 1.04167C8.02861 1.04166 6.52108 1.04165 5.34484 1.19979C4.14089 1.36166 3.19087 1.69944 2.4452 2.44512C1.69952 3.19079 1.36174 4.14081 1.19987 5.34476C1.04173 6.521 1.04174 8.02853 1.04175 9.95219V10.0478C1.04174 11.9715 1.04173 13.479 1.19987 14.6552C1.36174 15.8592 1.69952 16.8092 2.4452 17.5549C3.19087 18.3006 4.14089 18.6383 5.34484 18.8002C6.52108 18.9584 8.02861 18.9583 9.95227 18.9583H10.0479C11.9716 18.9583 13.4791 18.9584 14.6553 18.8002C15.8593 18.6383 16.8093 18.3006 17.555 17.5549C18.3006 16.8092 18.6384 15.8592 18.8003 14.6552C18.9584 13.479 18.9584 11.9715 18.9584 10.0478V9.95219C18.9584 8.02853 18.9584 6.521 18.8003 5.34476C18.6384 4.14081 18.3006 3.19079 17.555 2.44512C16.8093 1.69944 15.8593 1.36166 14.6553 1.19979C13.4791 1.04165 11.9716 1.04166 10.0479 1.04167H9.95227ZM3.32908 3.329C3.80379 2.85429 4.44606 2.58187 5.5114 2.43864C6.59471 2.293 8.01823 2.29167 10.0001 2.29167C11.9819 2.29167 13.4055 2.293 14.4888 2.43864C15.5541 2.58187 16.1964 2.85429 16.6711 3.329C17.1458 3.80371 17.4182 4.44598 17.5614 5.51132C17.7071 6.59463 17.7084 8.01815 17.7084 10C17.7084 11.9819 17.7071 13.4054 17.5614 14.4887C17.4182 15.554 17.1458 16.1963 16.6711 16.671C16.1964 17.1457 15.5541 17.4181 14.4888 17.5614C13.4055 17.707 11.9819 17.7083 10.0001 17.7083C8.01823 17.7083 6.59471 17.707 5.5114 17.5614C4.44606 17.4181 3.80379 17.1457 3.32908 16.671C2.85437 16.1963 2.58195 15.554 2.43872 14.4887C2.29308 13.4054 2.29175 11.9819 2.29175 10C2.29175 8.01815 2.29308 6.59463 2.43872 5.51132C2.58195 4.44598 2.85437 3.80371 3.32908 3.329Z" fill="#2B3344"/>
</svg>
