<svg width="20" height="20" viewBox="0 0 20 20" fill="none" xmlns="http://www.w3.org/2000/svg">
<path fill-rule="evenodd" clip-rule="evenodd" d="M6.04175 5C6.04175 2.81387 7.81395 1.04167 10.0001 1.04167C12.1862 1.04167 13.9584 2.81387 13.9584 5C13.9584 7.18613 12.1862 8.95833 10.0001 8.95833C7.81395 8.95833 6.04175 7.18613 6.04175 5ZM10.0001 2.29167C8.50431 2.29167 7.29175 3.50423 7.29175 5C7.29175 6.49577 8.50431 7.70833 10.0001 7.70833C11.4959 7.70833 12.7084 6.49577 12.7084 5C12.7084 3.50423 11.4959 2.29167 10.0001 2.29167Z" fill="#2B3344"/>
<path d="M6.18538 12.3523C5.22259 12.9025 4.79175 13.5673 4.79175 14.1667C4.79175 14.7661 5.22259 15.4309 6.18538 15.981C7.13049 16.5211 8.47787 16.875 10.0001 16.875C11.0281 16.875 11.981 16.7134 12.785 16.439C13.1117 16.3275 13.4669 16.502 13.5784 16.8286C13.6899 17.1553 13.5154 17.5105 13.1887 17.622C12.2454 17.9439 11.1553 18.125 10.0001 18.125C8.30064 18.125 6.73135 17.7327 5.56521 17.0663C4.41675 16.4101 3.54175 15.4082 3.54175 14.1667C3.54175 12.9251 4.41675 11.9233 5.56521 11.267C6.73135 10.6006 8.30064 10.2083 10.0001 10.2083C12.2752 10.2083 14.3563 10.9148 15.5159 12.0789C15.7595 12.3235 15.7588 12.7192 15.5142 12.9628C15.2697 13.2064 14.874 13.2057 14.6303 12.9611C13.783 12.1105 12.0721 11.4583 10.0001 11.4583C8.47787 11.4583 7.13049 11.8122 6.18538 12.3523Z" fill="#2B3344"/>
<path d="M17.9881 14.5571C18.2038 14.2876 18.1601 13.8943 17.8905 13.6786C17.621 13.463 17.2277 13.5067 17.012 13.7762L15.7816 15.3143L15.737 15.2697L15.442 14.9747C15.1979 14.7306 14.8022 14.7306 14.5581 14.9747C14.3141 15.2188 14.3141 15.6145 14.5581 15.8586L15.3915 16.6919C15.5172 16.8176 15.6905 16.8839 15.868 16.874C16.0455 16.8642 16.2104 16.7793 16.3215 16.6404L17.9881 14.5571Z" fill="#2B3344"/>
</svg>
