<svg width="14" height="14" viewBox="0 0 14 14" fill="none" xmlns="http://www.w3.org/2000/svg">
<path d="M10.4827 11.3306C10.095 11.1456 9.59427 10.996 9.01649 10.8907C9.18509 10.716 9.35752 10.5293 9.53034 10.3311C10.2206 9.5393 10.7714 8.73034 11.1674 7.92665C11.668 6.91064 11.9219 5.89971 11.9219 4.92188C11.9219 2.20795 9.71392 0 7 0C4.28608 0 2.07812 2.20795 2.07812 4.92188C2.07812 5.89971 2.33196 6.91064 2.83262 7.92665C3.22861 8.73034 3.7794 9.5393 4.46966 10.3311C4.64248 10.5293 4.81491 10.716 4.98351 10.8907C4.40573 10.996 3.90504 11.1456 3.51731 11.3306C2.77979 11.6826 2.625 12.0843 2.625 12.3594C2.625 12.7076 2.86587 13.203 4.01327 13.5855C4.81512 13.8528 5.87582 14 7 14C8.12418 14 9.18488 13.8528 9.98673 13.5855C11.1341 13.203 11.375 12.7076 11.375 12.3594C11.375 12.0843 11.2202 11.6826 10.4827 11.3306ZM2.625 4.92188C2.625 2.50947 4.5876 0.546875 7 0.546875C9.4124 0.546875 11.375 2.50947 11.375 4.92188C11.375 6.95201 10.1521 8.78347 9.12622 9.96237C8.24496 10.9751 7.35298 11.6943 7 11.9639C6.64691 11.6942 5.75496 10.975 4.87378 9.96237C3.84792 8.78347 2.625 6.95201 2.625 4.92188ZM9.81375 13.0667C9.06623 13.3159 8.06695 13.4531 7 13.4531C5.93305 13.4531 4.93377 13.3159 4.18625 13.0667C3.43755 12.8171 3.17188 12.5297 3.17188 12.3594C3.17188 12.0753 3.88445 11.5861 5.46421 11.3675C5.69816 11.5899 5.91604 11.7834 6.10641 11.9455C5.81634 12.0457 5.63281 12.1939 5.63281 12.3594C5.63281 12.6615 6.24504 12.9062 7 12.9062C7.75496 12.9062 8.36719 12.6615 8.36719 12.3594C8.36719 12.1939 8.18366 12.0457 7.89359 11.9455C8.08396 11.7834 8.30181 11.5899 8.53579 11.3675C10.1155 11.5861 10.8281 12.0753 10.8281 12.3594C10.8281 12.5297 10.5625 12.8171 9.81375 13.0667Z" fill="#6E6A7C"/>
<path d="M10.8281 4.92188C10.8281 2.81105 9.11083 1.09375 7 1.09375C4.88917 1.09375 3.17188 2.81105 3.17188 4.92188C3.17188 7.0327 4.88917 8.75 7 8.75C9.11083 8.75 10.8281 7.0327 10.8281 4.92188ZM4.98673 7.51105C5.32771 6.70947 6.12002 6.17969 7 6.17969C7.87998 6.17969 8.67229 6.70947 9.01327 7.51105C8.45704 7.94454 7.75819 8.20312 7 8.20312C6.24181 8.20312 5.54296 7.94454 4.98673 7.51105ZM6.17969 4.8125C6.17969 4.36018 6.54768 3.99219 7 3.99219C7.45232 3.99219 7.82031 4.36018 7.82031 4.8125C7.82031 5.26482 7.45232 5.63281 7 5.63281C6.54768 5.63281 6.17969 5.26482 6.17969 4.8125ZM3.71875 4.92188C3.71875 3.11259 5.19072 1.64062 7 1.64062C8.80928 1.64062 10.2812 3.11259 10.2812 4.92188C10.2812 5.7668 9.96018 6.53811 9.4337 7.12034C9.11772 6.50431 8.58093 6.03611 7.94292 5.80106C8.204 5.55193 8.36719 5.20103 8.36719 4.8125C8.36719 4.05863 7.75387 3.44531 7 3.44531C6.24613 3.44531 5.63281 4.05863 5.63281 4.8125C5.63281 5.20103 5.796 5.55193 6.05708 5.80109C5.41907 6.03611 4.88228 6.50434 4.5663 7.12037C4.03985 6.53811 3.71875 5.7668 3.71875 4.92188Z" fill="#6E6A7C"/>
</svg>
